<svg width="77" height="77" viewBox="0 0 77 77" fill="none" xmlns="http://www.w3.org/2000/svg">
<path fill-rule="evenodd" clip-rule="evenodd" d="M38.7423 0.857361C59.6668 0.857361 76.6293 17.8198 76.6293 38.744C76.6293 59.6683 59.6668 76.6308 38.7423 76.6308C17.818 76.6308 0.855469 59.6683 0.855469 38.744C0.855469 17.8198 17.818 0.857361 38.7423 0.857361Z" fill="white"/>
<path fill-rule="evenodd" clip-rule="evenodd" d="M37.0597 67.9556C37.195 67.9587 37.1957 67.956 37.2861 68.0479C37.2255 68.1144 37.2426 68.1046 37.1458 68.0974L37.0597 67.9556ZM37.2233 67.8011C37.2861 67.6355 37.3942 67.5376 37.5529 67.4647C37.5649 67.742 37.5135 67.8252 37.2233 67.8011ZM38.6973 61.535L38.5201 61.6188C38.8107 62.0551 38.8322 62.5543 38.7106 63.0487C38.5922 63.5291 38.5118 63.472 38.4313 63.641C38.2941 63.929 38.1561 63.8946 37.9675 64.0506L38.0559 64.4656C38.1859 64.4074 38.1319 64.3318 38.2286 64.2151C38.2491 64.2494 38.2379 64.2071 38.2469 64.2842L38.0215 65.7499C37.9879 65.8791 37.8001 66.0398 37.7166 66.3426C37.6297 66.6574 37.6455 66.7334 37.3571 66.8875C37.3889 67.063 37.5559 67.18 37.2173 67.2976C36.9991 67.374 37.0574 67.4404 36.7857 67.521C36.5463 67.2274 36.873 67.261 36.9921 67.0852C36.8967 67.0278 36.7369 67.0906 36.6217 67.1071C36.5581 66.7519 36.3809 65.807 36.5535 65.4702C36.6835 65.217 36.7089 65.4116 36.6178 65.0518C36.5393 64.7438 36.5211 64.2936 36.6681 64.0052C36.9229 63.5064 37.2819 63.715 37.4853 63.5646L37.207 63.4712C37.1383 63.3635 37.215 63.1091 36.9814 63.1243L37.0438 63.4368L36.5853 63.6882C36.3831 63.1828 36.6322 62.3778 36.7933 61.8106C36.9727 61.179 36.5407 61.761 36.7585 61.2942C37.0918 60.5795 38.463 60.7371 38.8081 61.2466L38.5897 61.1668L38.6973 61.535ZM39.4215 54.8992C39.465 54.9866 39.4611 54.9534 39.389 55.0055C39.3678 54.9627 39.3217 55.0406 39.3682 54.9367C39.3946 54.8774 39.3602 54.9215 39.4215 54.8992ZM40.3501 54.0828C40.3793 53.9343 40.431 53.906 40.5795 53.87C40.5379 54.0099 40.4858 54.0319 40.3501 54.0828ZM40.8471 53.9359C40.8717 53.8115 40.8811 53.7744 41.0006 53.7386L41.0947 53.7938C41.0441 53.9324 40.9938 53.9324 40.8471 53.9359ZM41.4893 53.7328C41.5581 53.4244 41.8899 52.9294 42.1753 52.833C42.1382 53.1504 41.7754 53.6434 41.4893 53.7328ZM41.6899 52.7574C41.5985 52.5435 41.7761 52.4343 41.9753 52.3874C41.9571 52.5798 41.8967 52.7386 41.6899 52.7574ZM42.7365 50.9282L42.6775 50.6443L43.4917 50.5226C43.4187 50.9984 43.1311 50.9424 42.7365 50.9282ZM44.3223 49.7758C44.1791 49.7315 44.1565 49.6876 44.1233 49.5432C44.2426 49.5724 44.2813 49.6526 44.3223 49.7758ZM40.163 49.1876C40.2174 49.0542 40.3441 48.8286 40.4703 48.7795C40.4934 49.0391 40.4273 49.1502 40.163 49.1876ZM40.8055 48.9624C40.7989 49.0218 40.7859 49.0123 40.7761 49.0278C40.711 48.9238 40.6835 48.9076 40.7979 48.8452C40.8059 48.9008 40.8131 48.8996 40.8055 48.9624ZM40.6786 48.6147C40.3622 48.4551 40.5103 47.8376 40.7753 47.705C40.9779 47.9336 40.8391 48.4344 40.6786 48.6147ZM46.2843 48.0643C46.3274 47.883 46.425 47.7495 46.5901 47.6807C46.5794 47.897 46.4967 48.0138 46.2843 48.0643ZM46.2817 47.6846C46.3093 47.542 46.3154 47.4815 46.4685 47.4596C46.4325 47.6119 46.4219 47.6343 46.2817 47.6846ZM46.0981 47.5575C46.1271 47.4294 46.1101 47.4143 46.2171 47.3898C46.2051 47.5088 46.2118 47.5182 46.0981 47.5575ZM40.9454 47.22C40.9775 47.1206 40.9703 47.1475 41.0721 47.1278C41.0289 47.2223 41.0601 47.2052 40.9454 47.22ZM42.515 47.0938C42.3899 47.1078 42.4919 47.0942 42.4462 47.062C42.5055 46.9675 42.5169 46.9864 42.583 47.058C42.5393 47.0918 42.5963 47.0851 42.515 47.0938ZM40.2371 46.9683C40.3818 46.9932 40.3966 47.0507 40.3917 47.192C40.2598 47.1384 40.2553 47.1082 40.2371 46.9683ZM41.4095 46.9168C41.2107 46.8262 41.4326 46.5979 41.5247 46.491C41.6571 46.3375 41.7769 46.2676 41.7742 46.0295C41.7715 45.7766 41.7534 45.7766 42.0002 45.6099C42.2727 45.893 42.1915 46.4403 42.0747 46.7759C41.865 46.737 41.911 46.6799 41.7742 46.6152C41.6695 46.7302 41.6298 47.0171 41.4095 46.9168ZM38.2135 45.2574C38.1806 45.133 38.1746 45.0634 38.2607 44.9768C38.3905 45.031 38.3961 45.1262 38.3905 45.2592C38.2605 45.2986 38.3155 45.3104 38.2135 45.2574ZM48.1439 44.9538C48.0022 44.9368 48.009 44.9107 47.9749 44.7844C48.1238 44.8003 48.1213 44.8083 48.1439 44.9538ZM44.1719 44.8559C44.0786 44.8188 44.059 44.8612 44.0957 44.7735C44.1655 44.7615 44.1387 44.7855 44.1719 44.8559ZM33.9887 43.9488C34.1195 43.9072 34.1834 43.9568 34.2349 44.0826L34.0235 44.0448L33.9887 43.9488ZM48.9031 43.9608C49.2237 43.9283 49.331 43.8606 49.6099 43.8012C49.5211 44.0919 49.0801 44.2 48.9031 43.9608ZM45.3433 43.5979C45.3006 43.4578 45.3459 43.4376 45.471 43.4211L45.3433 43.5979ZM38.8666 42.8662C38.9218 42.9366 38.9195 42.9486 38.9154 43.0548L38.7786 42.9732C38.8069 42.8768 38.7746 42.9203 38.8666 42.8662ZM35.5902 43.113C35.3739 43.361 35.2886 43.307 34.9961 43.2026C34.8113 43.1364 34.4827 43.0658 34.5323 42.8216C34.6585 42.2022 35.4511 43.0034 35.5902 43.113ZM38.6659 42.5306C38.7219 42.455 38.6361 42.4875 38.7797 42.4916L38.6659 42.5306ZM49.9433 42.5831C49.9187 42.5598 49.867 42.6183 49.8998 42.4928C49.9225 42.4059 49.9418 42.4615 49.9853 42.4638L49.9433 42.5831ZM37.5166 42.2267C37.3889 42.3416 37.3015 42.266 37.2041 42.395C36.9977 42.6674 36.8355 42.8851 36.1866 42.7215C36.0123 42.6776 34.8029 42.2819 34.7481 42.2222L37.5166 42.2267ZM49.8719 42.9298C49.9675 42.6119 50.0302 42.6859 50.0794 42.5404C50.1406 42.3579 50.2389 42.0022 50.4086 41.8672C50.4985 42.2623 50.3103 42.87 49.8719 42.9298ZM36.6567 42.1251C36.7245 41.9743 36.851 41.8866 37.0102 41.9652C37.0317 42.1179 36.7721 42.1278 36.6567 42.1251ZM34.6309 41.7883C34.8343 41.6383 35.0195 41.8332 35.0818 42.0192C34.9213 42.0112 34.6166 41.9947 34.6309 41.7883ZM40.5579 41.7074C40.6199 41.6303 40.6086 41.634 40.6978 41.627C40.6465 41.7294 40.6559 41.7059 40.5579 41.7074ZM39.1119 41.4274C39.2189 41.3458 39.3346 41.4314 39.4521 41.4844C39.3509 41.5718 39.1758 41.5642 39.1119 41.4274ZM47.0187 41.2747C46.9673 41.2014 46.9783 41.2296 47.0121 41.1243C47.045 41.1548 47.1509 41.0914 47.0187 41.2747ZM50.929 41.2418C50.9751 41.0535 51.0421 40.9507 51.2215 40.8884C51.1849 41.0872 51.1138 41.1723 50.929 41.2418ZM51.6041 40.9107C51.6607 40.7758 51.765 40.6491 51.9018 40.586L51.9138 40.8271C51.8095 40.9122 51.7397 40.9058 51.6041 40.9107ZM43.5582 40.8408C43.2755 40.8178 42.981 40.6711 42.8495 40.4338C43.0203 40.4727 43.4731 40.7024 43.5582 40.8408ZM51.4763 40.6144C51.4003 40.5195 51.4003 40.4455 51.3901 40.3151C51.3697 40.0452 51.3719 40.0966 51.4446 40.0154L51.4763 40.6144ZM47.781 40.3691C47.9217 40.3438 48.077 40.4163 48.2218 40.4231C48.1798 40.2078 48.0441 40.3116 48.0082 40.0395C48.4981 40.0115 49.7506 41.4088 49.9187 41.8718C49.8594 41.9898 49.8081 42.0615 49.7078 42.0854C49.5382 42.1258 49.6107 42.092 49.4791 42.257C49.2554 42.2075 48.5131 41.735 48.2913 41.5774C47.9666 41.3464 47.5871 40.9742 47.4466 40.5755C47.5663 40.5139 47.6537 40.3922 47.781 40.3691ZM44.2193 41.6C44.2326 41.0022 44.4237 39.9288 45.1898 39.9723C45.0839 40.3147 44.9494 40.5512 44.8723 40.9379C44.8179 41.2108 44.8843 41.2074 44.6554 41.3672C44.4789 41.4908 44.4437 41.5578 44.2193 41.6ZM41.6415 39.8283C41.5849 39.7212 41.6295 39.7439 41.693 39.7099C41.7066 39.8191 41.7262 39.7643 41.6415 39.8283ZM49.8949 41.0419C50.1383 41.0499 50.2945 41.1167 50.2782 40.8094C49.8621 40.5422 48.9074 40.6491 48.8578 39.611C49.7902 39.9538 49.6663 40.3079 50.8761 40.2655L50.8122 40.8518C50.6577 40.9163 50.6233 40.8624 50.5462 41.0052C50.4962 41.0982 50.4898 41.1684 50.3934 41.2395C50.2105 41.374 49.9433 41.2462 49.8949 41.0419ZM50.031 39.5962C50.1051 39.7247 50.039 39.6944 50.027 39.714C49.9333 39.6411 49.9306 39.6551 50.031 39.5962ZM49.7335 39.9288C49.585 39.8831 49.4002 39.7636 49.3503 39.626C49.4894 39.668 49.6787 39.8032 49.7335 39.9288ZM36.1666 39.7523C36.3325 39.7836 36.3737 39.4004 36.7138 39.378C36.9501 39.363 37.1742 39.5712 37.4305 39.6067C37.6905 39.6423 37.6901 39.5308 38.2249 39.482C38.4649 39.4604 38.8606 39.3576 39.0353 39.5508C38.9778 39.7095 38.7537 39.7138 38.5897 39.7504C38.5893 39.9447 38.6429 40.1254 38.7835 40.25C39.2193 40.3018 39.1863 39.7859 39.2963 39.5723L39.595 39.6306C39.5503 39.6412 39.4718 39.6199 39.4302 39.713L39.7102 39.8695L39.4805 41.0286L39.2279 41.1492C39.1245 41.0512 39.0965 40.9288 38.9702 40.8699C38.7914 41.0516 38.7219 41.4307 38.6595 41.6863C38.4679 41.7172 38.2566 41.7959 38.0805 41.8227C37.9051 41.8484 37.5691 41.5796 36.2354 41.8446C36.2447 42.1099 36.3071 42.2078 35.9149 42.0586C35.5173 41.9066 34.9106 41.394 34.8815 40.8786L35.4285 40.6412L35.7478 40.9194L35.6223 41.1859L36.1235 41.0331C35.9338 40.5638 34.8622 39.7643 35.7278 39.5195C35.8403 39.6658 36.0997 39.8388 36.2387 40.0251C36.3601 40.1872 36.5354 40.5112 36.6677 40.6283C36.9587 40.8858 38.2679 40.9754 38.4626 40.8298L38.5106 40.2352L38.2805 40.2183L38.2094 40.3914C38.0899 40.2758 38.1961 40.2727 38.0813 40.1256L37.9811 40.3267L37.9267 40.0784C37.2857 40.0475 38.0903 40.4023 37.5018 40.5615L37.5015 40.1495C37.3677 40.1455 37.2573 40.4227 37.0679 40.5164C36.8253 40.3664 36.2667 39.9798 36.1666 39.7523ZM48.1786 39.3483C48.3623 39.4054 48.3317 39.474 48.4909 39.521C48.5475 39.3584 48.5294 39.3648 48.6907 39.344C48.6699 39.5735 48.6462 39.5039 48.4447 39.5723L48.5558 39.9635C48.2863 39.9235 48.2659 39.8067 48.0577 39.7134L48.1786 39.3483ZM36.1666 39.7523C36.0502 39.6431 35.995 39.5263 36.0203 39.357L36.1666 39.7523ZM43.9183 38.739L44.2634 38.8263C44.2813 39.6778 44.4871 39.3232 44.5866 39.6604L44.0246 39.3588C44.059 39.6854 44.2109 39.682 44.4278 39.8086C44.4358 40.0706 44.3155 40.0459 44.2011 40.2282L44.387 40.3582C44.2343 40.5547 44.0026 40.6468 43.7399 40.6608L43.6969 40.5286C43.6243 40.3876 43.5495 40.4738 43.4278 40.3139C43.3151 40.1654 43.1289 39.3415 43.9471 39.1366L43.9183 38.739ZM37.4785 39.0224C37.6402 39.0739 37.8269 39.2478 37.8341 39.4264L37.5794 39.4291C37.5314 39.2606 37.4943 39.2204 37.4785 39.0224ZM42.0943 39.4132C42.1261 39.2488 42.2789 39.1407 42.4213 39.0822C42.3745 39.2666 42.2818 39.3687 42.0943 39.4132ZM41.8329 39.2386C41.8714 39.0991 41.8687 39.1147 42.0127 39.0871C41.9802 39.2375 41.9957 39.2159 41.8329 39.2386ZM38.4463 39.222C38.4671 39.1011 38.4739 39.1128 38.5942 39.0712C38.5673 39.1838 38.5643 39.1838 38.4463 39.222ZM42.9991 39.0236C42.9171 39.3467 42.7739 39.6306 42.7109 39.9746C42.6703 40.1938 42.7369 40.3434 42.5721 40.4466C42.1831 40.6892 43.1209 40.7644 43.591 41.0856C43.9313 41.3182 43.5121 41.6999 43.2562 41.7135C42.9478 41.7294 42.6625 41.4784 42.4334 41.3095C42.0566 41.0306 42.0233 41.0067 42.0259 40.4859C42.0299 39.8671 42.2799 39.0674 42.9991 39.0236ZM37.9202 39.0028C37.989 38.9658 37.9498 38.9548 38.1338 39.0002C38.1954 39.0148 38.2537 39.0292 38.3133 39.0443L38.2121 39.1722C38.0782 39.1452 37.9614 39.1287 37.9202 39.0028ZM48.5801 39.1034C48.4511 39.035 48.4705 38.9283 48.5827 38.8482L48.5801 39.1034ZM49.3485 38.8671C49.5706 38.5144 49.0895 37.9858 49.977 37.8466L50.0269 38.0095C50.3859 38.056 50.6173 38.0099 50.6766 38.4868C50.6985 38.6615 50.6846 38.8399 50.6513 39.0115C50.6111 39.2144 50.6241 39.2787 50.4253 39.3376C49.441 39.6287 48.865 38.8403 49.2331 38.55C49.3046 38.6819 49.2371 38.7639 49.3485 38.8671ZM45.2639 38.5092C45.2759 38.7004 45.2197 38.7975 45.3425 38.939L45.0858 38.8498L45.2639 38.5092ZM36.3654 38.7771C36.4209 38.7008 36.4349 38.711 36.5389 38.6831L36.4791 38.8327C36.385 38.8247 36.4614 38.866 36.3654 38.7771ZM43.0041 38.7375C43.0298 38.6123 43.0593 38.6108 43.1843 38.5927C43.1477 38.7167 43.1299 38.7122 43.0041 38.7375ZM38.7378 38.6539C38.7677 38.514 38.7794 38.44 38.9131 38.3908C38.9118 38.5591 38.8938 38.5987 38.7378 38.6539ZM38.8497 39.1332C38.9574 38.891 39.3383 38.5474 39.5773 38.4306C39.5213 38.5855 39.4131 38.7608 39.3138 38.8947C39.217 39.0236 39.0077 39.1007 38.8497 39.1332ZM37.7506 38.6104C37.7997 38.406 37.8201 38.389 38.0019 38.3224C37.9845 38.5107 37.9445 38.5855 37.7506 38.6104ZM42.1205 38.4895C42.1409 38.3376 42.1325 38.3444 42.2727 38.2956C42.2554 38.46 42.2754 38.4555 42.1205 38.4895ZM42.9686 38.389C42.9054 38.3796 42.9334 38.377 42.9047 38.3546L43.0079 38.2926L43.0521 38.3867C43.0059 38.3907 43.0245 38.397 42.9686 38.389ZM36.5415 38.4268C36.5751 38.3451 36.5601 38.3694 36.6454 38.3232C36.6126 38.4264 36.6481 38.3852 36.5415 38.4268ZM37.4649 38.5443C37.5586 38.358 37.5839 38.3066 37.7766 38.2242C37.7619 38.4184 37.7646 38.3028 37.6503 38.4242C37.5613 38.5183 37.6423 38.5319 37.4649 38.5443ZM52.0515 38.0134C52.0841 38.1656 52.1207 38.2355 52.0081 38.3428C51.9246 38.2416 51.9518 38.2514 51.9638 38.1199L52.0515 38.0134ZM44.1433 38.2847C44.3239 38.0798 44.6603 38.3014 44.6913 38.5556L44.1433 38.2847ZM37.0566 38.3436C37.0838 38.2 37.0143 38.2328 37.1942 38.2196C37.1458 38.3504 37.1773 38.3082 37.0566 38.3436ZM44.8773 38.1312L45.2389 38.1815L45.2635 38.5118L44.8773 38.1312ZM39.4154 39.363C39.4551 39.1792 39.7545 38.3908 39.8482 38.2375C39.9533 38.0659 40.0799 38.0606 40.1453 37.7616C40.1857 37.5775 40.1653 37.3138 40.3222 37.1766C40.6321 37.3783 40.4918 39.2938 39.4154 39.363ZM48.1155 38.781C48.1209 38.3867 48.2274 38.2332 48.2822 37.9026C48.4489 37.8959 48.6405 37.861 48.7845 37.9563C48.7791 38.123 48.5737 38.2718 48.4689 38.3795C48.3314 38.5212 48.2807 38.6906 48.1155 38.781ZM43.8639 37.9714C43.9505 37.9339 43.8746 37.9347 43.9486 37.9714H43.8639ZM37.3075 38.0538C37.3182 37.909 37.3129 37.917 37.4513 37.904C37.4377 38.0406 37.4553 38.053 37.3075 38.0538ZM42.2123 37.8867C42.2111 38.0202 42.2357 37.9623 42.1303 37.9672C42.1343 37.8719 42.1143 37.8927 42.2123 37.8867ZM51.3194 39.1672C51.3194 38.556 51.0553 37.457 51.6671 37.1746C52.3997 37.6731 51.7265 38.0318 51.7098 38.0682C51.6781 38.265 51.7689 38.2824 51.765 38.4242C51.7623 38.5278 51.6925 38.564 51.6286 38.671C51.4951 38.8935 51.5847 39.1026 51.3194 39.1672ZM48.6197 37.5091C48.7595 37.5404 48.741 37.5087 48.7614 37.6739C48.6091 37.6523 48.6375 37.649 48.6197 37.5091ZM36.0982 37.4154C36.2006 37.41 36.2573 37.5598 36.0902 37.6236C36.0517 37.4947 36.0317 37.5198 36.0982 37.4154ZM48.2478 37.4831L48.3718 37.5198C48.2954 37.5567 48.297 37.5291 48.2478 37.4831ZM39.7227 38.1706C39.7549 37.9106 39.8119 37.3012 39.9374 37.1024C40.1381 37.2404 40.0909 37.4675 40.0089 37.6546C39.9038 37.8954 39.8626 38.104 39.7227 38.1706ZM37.2638 37.7382C37.3151 36.9966 39.5538 35.484 39.6206 37.4275C39.0598 37.5884 37.9165 38.4067 37.449 37.6867L37.2638 37.7382ZM48.2478 37.4831C48.1182 37.4738 48.0599 37.4052 47.9995 37.2952C48.1306 37.2034 48.1405 37.4108 48.2043 37.0919C48.4897 37.2083 48.1757 37.2642 48.2478 37.4831ZM49.1122 37.8148C48.8669 37.2139 48.2058 36.7335 49.4395 36.5804C49.9086 36.5219 49.921 36.565 50.2203 36.9074C50.4399 37.1587 50.6202 37.2431 50.6762 37.6228C50.4434 37.5934 49.9795 37.446 49.8103 37.4928C49.6307 37.5416 49.633 37.6387 49.5011 37.7038C49.4165 37.746 49.2093 37.7944 49.1122 37.8148ZM48.529 36.9304L48.5183 37.1084C48.3894 37.0124 48.4075 36.9856 48.529 36.9304ZM42.3506 37.1902C42.3881 37.0314 42.4802 36.8764 42.6235 36.8114C42.5974 36.9856 42.5154 37.124 42.3506 37.1902ZM51.7069 35.8919C51.8599 35.9512 51.8173 36.3299 51.8263 36.4871C51.8425 36.7646 51.8879 36.9343 51.5749 36.9891L51.7069 35.8919ZM50.2805 36.6206C50.2885 36.5068 50.2623 36.5332 50.3753 36.4958C50.3779 36.6288 50.4018 36.5903 50.2805 36.6206ZM36.9387 36.5699C36.9651 36.4395 36.9427 36.4516 37.0638 36.4047C37.0835 36.5616 37.0842 36.5412 36.9387 36.5699ZM49.3042 36.424C49.1454 36.5499 49.2074 36.441 49.1742 36.41C49.2801 36.3476 49.2694 36.3938 49.3042 36.424ZM46.8358 35.9999C47.213 36.1111 47.6835 36.0392 47.8813 36.1198C48.1015 36.3472 47.6961 36.4203 48.2538 36.7174C48.4157 36.6078 48.4493 36.3692 48.6915 36.3235L48.7743 36.5676C48.5827 36.6648 48.4859 36.737 48.2667 36.8239C48.1073 36.8874 47.8899 36.9415 47.7738 37.0688C47.8494 37.2615 47.9159 37.1924 47.8131 37.398C47.7489 37.5254 47.6915 37.5779 47.6718 37.7124L48.0142 37.8855C47.8385 38.4726 47.8733 38.4411 47.865 39.0352C47.861 39.3248 47.6821 39.2972 47.6295 39.4703C47.5997 39.5704 47.6038 39.9884 47.5993 40.125C47.4715 40.2274 47.0999 40.4682 47.0373 40.5891C46.9685 40.7214 47.0466 40.8192 46.9537 41.0222C46.9007 41.1379 46.8237 41.224 46.7787 41.3378C46.5406 41.3338 46.2897 41.2595 46.1195 41.4482C46.0643 41.634 46.3097 42.224 46.3517 42.4864C45.9359 42.6418 45.8894 42.709 45.3946 42.7003C45.3319 42.1016 45.4483 41.4466 45.6127 40.8755C45.7326 40.4598 46.0254 39.6378 46.0641 39.2507C45.9166 39.1963 45.6645 39.0867 45.6237 38.9351L45.9434 39.0051C45.9501 38.5348 46.0085 38.5602 46.3717 38.315C46.1003 37.7998 45.7813 37.2952 45.6735 36.6024C45.9018 36.8198 45.8369 37.3111 46.2231 37.5231C46.4405 37.231 46.2227 36.8874 46.7243 36.9063C46.6842 37.2382 46.5542 37.0076 46.5542 37.3031L47.1691 36.9395C46.9639 36.596 46.8086 36.8204 46.6358 36.7067L46.8797 36.5782L46.6502 36.3556L46.8358 35.9999ZM42.5729 36.4358C42.5933 36.2687 42.5997 36.1946 42.7659 36.1414C42.7453 36.3128 42.7383 36.3938 42.5729 36.4358ZM37.1571 36.7203C37.1651 36.4867 37.201 36.181 37.3926 36.0336C37.3846 36.2467 37.3966 36.6564 37.1571 36.7203ZM46.1509 36.0026C46.6397 36.1118 46.2674 36.8322 46.0773 36.9316C46.1033 36.7294 46.1509 36.6776 46.1906 36.5163C46.233 36.3458 46.1759 36.1715 46.1509 36.0026ZM45.7915 35.95C45.8078 35.8348 45.7822 35.8734 45.9071 35.8332C45.8622 35.9838 45.9098 35.9179 45.7915 35.95ZM46.7522 35.9236C46.6906 35.9196 46.6607 35.9116 46.5985 35.8919C46.4759 35.8544 46.5047 35.8722 46.4343 35.7986L46.6105 35.7112L46.7522 35.9236ZM49.6209 35.639L49.6275 35.7988C49.5107 35.8128 49.4991 35.8147 49.4398 35.7071L49.6209 35.639ZM45.7114 35.5823C45.7915 35.6371 45.7934 35.6194 45.7394 35.709C45.7098 35.6888 45.6959 35.7116 45.6823 35.6458C45.6649 35.5638 45.6797 35.6276 45.7114 35.5823ZM44.6126 35.3915C44.8149 35.4674 44.7302 35.5514 44.7034 35.715C45.0734 36.0203 45.2094 36.2947 45.2279 36.8204L44.8886 36.6696C44.8474 36.8904 44.8926 37.2998 45.1399 37.3923L45.1917 37.1951C45.4374 37.3398 45.3031 37.5684 45.0901 37.6766C44.7597 37.8443 44.7075 37.8146 44.6111 38.0058C44.3375 37.785 44.4222 37.7594 44.3149 37.4638C44.0001 37.5594 44.2529 37.5503 43.8609 37.5254C43.8942 37.282 44.0503 37.2922 44.1991 37.0431C44.3217 36.839 44.2883 36.5938 44.4475 36.5215C44.4774 36.5658 44.4667 36.5228 44.4694 36.61L44.4169 36.91C44.4006 37.0276 44.3701 37.1947 44.4262 37.2804C44.5721 37.1451 44.7935 36.7434 44.817 36.5472L44.6027 36.294L44.7581 36.2788C44.8321 36.2615 44.8283 36.2574 44.8963 36.1991L44.5875 35.9372L44.5822 35.4886L44.6126 35.3915ZM42.9614 35.7267C42.8839 35.4228 42.8926 35.2104 42.9229 34.8967C43.0521 35.0872 43.1171 35.5298 42.9614 35.7267ZM37.1281 35.3279C37.1942 35.1616 37.4259 34.77 37.5669 34.6991C37.6285 34.989 37.5549 35.4284 37.2573 35.5559L37.1281 35.3279ZM46.2182 35.0706C46.1766 35.2176 46.1581 35.2259 46.0093 35.2656L46.0614 35.0899L46.2182 35.0706ZM46.5489 35.1394C46.5833 35.0154 46.5837 35.0176 46.7019 34.978C46.6589 35.1035 46.6721 35.1103 46.5489 35.1394ZM45.0394 35.7168C44.8311 35.5578 44.6853 35.1631 44.6039 34.9008C44.8274 34.9991 45.0151 35.4674 45.0394 35.7168ZM46.0303 34.8888C46.0674 34.724 46.0981 34.7107 46.2681 34.7142C46.2291 34.8668 46.1853 34.8586 46.0303 34.8888ZM46.7182 34.5584L46.7262 34.6744L46.6147 34.6431L46.7182 34.5584ZM46.4654 34.3102C46.4798 34.3695 46.4922 34.3922 46.4869 34.4579C46.4749 34.5978 46.4627 34.5323 46.4465 34.5566C46.3517 34.4428 46.327 34.3804 46.4654 34.3102ZM46.9019 34.3168C46.9983 34.3898 47.0334 34.4839 46.9023 34.5482L46.9019 34.3168ZM42.7731 34.8819C42.5259 34.6891 42.4209 34.2235 42.5415 33.9382C42.7286 34.0896 42.7671 34.638 42.7731 34.8819ZM47.5123 34.5292C47.6827 34.5995 47.7709 34.7492 48.0389 34.7995L47.9375 34.0322L48.2875 34.4876C48.2835 34.4943 48.2735 34.4996 48.2698 34.5028C48.2658 34.5068 48.2561 34.5148 48.2515 34.5183C48.1462 34.6131 48.1726 34.5712 48.1495 34.6815C48.1359 34.7458 48.1299 34.8634 48.1174 34.9374C48.0902 35.1083 48.0531 35.2538 47.9825 35.4114C47.3683 35.4234 47.7917 35.1555 47.2765 35.1151L47.343 35.708C47.1574 35.704 46.6903 35.6846 46.6426 35.4907C46.8105 35.38 46.9083 35.5568 47.0535 35.4507C46.9726 35.1839 46.8679 35.337 46.6951 35.2624C46.7107 35.0784 46.9537 34.9831 47.0905 34.8743C47.2353 34.759 47.3638 34.6362 47.5123 34.5292ZM47.0653 34.171C47.1242 34.1006 47.0395 34.1032 47.1537 34.118C47.1113 34.2114 47.1643 34.1611 47.0653 34.171ZM36.9531 34.183C37.0215 34.0948 36.9134 34.1455 37.0317 34.0975C36.9905 34.204 37.0815 34.1251 36.9531 34.183ZM46.8781 33.9611C46.8937 34.0839 46.9133 34.0442 46.8282 34.1024C46.8115 33.9947 46.8119 34.0302 46.8781 33.9611ZM37.5102 34.0658C37.5378 33.9622 37.4947 33.9924 37.6126 33.9512C37.5865 34.0688 37.6166 34.0106 37.5102 34.0658ZM46.4442 34.0132C46.4699 33.9043 46.4087 33.9331 46.5326 33.9146C46.5074 34.0522 46.5334 33.9796 46.4442 34.0132ZM47.2913 33.8334L47.3846 33.8454C47.3457 33.882 47.4009 33.9531 47.2913 33.8334ZM37.4505 33.7868C37.4754 33.6867 37.4531 33.7195 37.5197 33.6602C37.5699 33.7652 37.5434 33.752 37.4505 33.7868ZM48.249 33.7775C48.1423 33.7594 48.1578 33.7855 48.1322 33.6588C48.2698 33.6838 48.2451 33.6708 48.249 33.7775ZM48.7849 35.3294L48.8223 35.6703L48.5253 35.7379L48.5094 36.0648L48.3314 36.1208C48.2266 35.7164 48.5381 35.1298 48.633 34.7099C48.8207 33.8788 48.2305 33.7495 48.3261 33.4316C48.6613 33.3822 48.8953 33.8062 48.9822 34.0847C49.1413 34.595 49.0189 34.8082 49.0358 35.2575L48.7849 35.3294ZM46.5107 33.5874C46.5094 33.4098 46.6147 33.4158 46.7783 33.3995C46.7663 33.5651 46.685 33.7499 46.5107 33.5874ZM37.7309 33.3791C37.6229 33.2699 37.6171 33.1535 37.653 33.0095C37.7486 33.1002 37.7691 33.2526 37.7309 33.3791ZM43.9006 33.1984C43.8598 33.1156 43.8586 33.1799 43.9019 33.0975C43.9606 33.1838 43.9658 33.1176 43.9006 33.1984ZM37.2471 33.2691C37.2538 33.0711 37.2879 32.842 37.4538 32.7234C37.4686 32.9199 37.4391 33.1916 37.2471 33.2691ZM38.4222 33.384C38.5695 33.3051 38.6818 33.0167 38.9782 32.876L38.8285 33.1224L39.0473 33.169C38.9671 33.4936 38.7589 33.7242 38.7133 34.0571L38.8682 34.0651L38.7767 34.2136L38.9717 34.2676L38.8361 34.5735L39.1101 34.4506C39.0885 34.6718 39.0291 34.9159 38.9615 35.1248C38.8066 35.6048 38.7026 35.4538 38.5858 35.4194L38.5631 35.7076L38.1021 35.7212C38.1523 35.262 38.0714 34.8327 38.0446 34.3572C37.9531 34.2888 37.9105 34.3506 37.8903 34.3036C37.8863 34.2943 37.873 34.301 37.8651 34.297C37.8866 33.8919 37.9309 33.1814 38.4173 33.094C38.3779 33.2376 38.3061 33.2567 38.4222 33.384ZM43.0914 34.6127C42.4371 34.2019 42.3881 30.9206 42.8386 30.3858C43.1171 30.6458 42.9777 31.4554 43.2721 31.5932L43.2861 31.2278C43.6818 31.4194 43.5294 32.3707 43.6058 32.7555L43.8303 33.4335C43.9301 33.6871 44.0967 33.7582 44.059 34.0912C43.5275 33.9094 43.7634 32.8844 43.2797 32.7668C43.3487 33.2306 43.6867 34.138 43.8473 34.6098C44.0601 35.2348 44.3019 35.824 44.2763 36.5146C43.9138 36.823 43.8938 37.2372 43.7838 37.3371C43.7263 37.3892 43.4542 37.4659 43.3386 37.5374C43.2063 37.6194 43.0691 37.7302 42.9285 37.7827C42.9505 37.3876 43.1258 37.5528 43.2187 37.359C43.1231 37.2595 43.0071 37.1995 42.8703 37.2535C42.8597 36.8499 43.0185 36.5607 43.1742 36.213C43.3738 35.7682 43.3847 35.5588 43.3858 35.0712C43.3269 34.8974 43.3911 35.0486 43.2354 34.9738C43.2951 34.7651 43.4078 34.6687 43.3854 34.4302C43.3761 34.3315 43.3159 33.8904 43.2887 33.824C43.1201 33.8807 43.1769 34.4518 43.0914 34.6127ZM38.8534 31.9879C39.1255 32.1342 39.1245 32.5627 38.8009 32.7052L38.8534 31.9879ZM42.379 32.2362C42.3106 32.1107 42.2849 31.8386 42.3473 31.7275C42.4371 31.8934 42.399 32.0563 42.379 32.2362ZM37.8711 32.7264C37.9078 32.2815 38.215 31.749 38.6055 31.5926C38.6581 31.9214 38.5794 32.5454 38.2313 32.6626L38.1966 32.4638C38.0578 32.526 38.0823 32.6667 37.8711 32.7264ZM38.8549 31.475C38.8682 31.4342 38.8837 31.4492 38.9055 31.4383C38.9486 31.5116 38.9479 31.4882 38.8754 31.5528C38.8591 31.531 38.8122 31.6088 38.8549 31.475ZM42.2406 31.3952C42.1685 31.3408 42.1215 31.4059 42.2259 31.2592C42.2482 31.286 42.3347 31.2259 42.2406 31.3952ZM47.1955 31.362C47.2221 31.2024 47.2281 31.1348 47.3807 31.0838C47.3754 31.2294 47.3267 31.3042 47.1955 31.362ZM38.2082 31.6428C38.1515 31.5586 38.175 31.6908 38.1723 31.5336C38.1715 31.4834 38.4181 30.9568 38.4675 30.2451C38.8655 30.5607 38.2574 31.5067 38.2082 31.6428ZM47.0723 30.8056C47.095 30.6284 47.0879 30.6114 47.2546 30.5679C47.2506 30.7024 47.205 30.7754 47.0723 30.8056ZM47.577 30.4231C47.6193 30.5123 47.6057 30.5407 47.6046 30.6499C47.4835 30.5554 47.4885 30.5222 47.577 30.4231ZM38.8693 30.6658C38.8334 30.4824 38.7337 30.0974 38.9581 30.0214C38.9963 30.2187 38.9933 30.5108 38.8693 30.6658ZM46.9831 30.4711C46.945 30.2644 46.9137 30.1559 47.1317 30.0766L47.1646 30.3332L46.9831 30.4711ZM42.2542 30.3226C42.2331 30.1268 42.2462 29.8407 42.3869 29.6979C42.5343 29.8672 42.5578 30.2535 42.2542 30.3226ZM42.0573 29.9738C42.1034 30.021 42.1038 29.9118 42.1121 30.0728C42.1174 30.1734 42.0758 30.1464 42.0649 30.1575C41.973 30.1219 42.0139 30.0706 42.0573 29.9738ZM46.9355 29.5304C47.2209 29.5924 47.0781 29.8646 46.863 29.962L46.9355 29.5304ZM38.7521 29.8728C38.7933 29.6491 38.9037 29.4027 39.1089 29.3067C39.0982 29.5451 38.9714 29.7904 38.7521 29.8728ZM42.0369 29.4824C42.0161 29.3407 41.9901 29.1672 42.0218 29.0383C42.2025 29.1434 42.3438 29.5179 42.097 29.631C42.0589 29.5856 42.0774 29.6243 42.0527 29.5595C42.0525 29.5584 42.0385 29.4911 42.0369 29.4824ZM47.2791 29.1106C47.2647 29.2212 47.3014 29.1794 47.1971 29.2084C47.2262 29.0478 47.2105 29.1298 47.2791 29.1106ZM39.0151 28.869C38.9665 28.6067 38.9517 28.1716 39.135 27.9726C39.1483 28.2208 39.1974 28.6827 39.0151 28.869ZM41.7066 28.4938C41.8607 28.5319 41.8498 28.5255 41.7742 28.6388C41.6722 28.5632 41.7089 28.6203 41.7066 28.4938ZM39.4105 28.8916C39.3701 28.5814 39.4487 27.9268 39.6785 27.7178C39.6691 27.8436 39.5791 28.2828 39.5841 28.33C39.5999 28.4804 39.6815 28.4091 39.6671 28.576C39.6605 28.643 39.621 28.7764 39.6086 28.8599C39.5285 28.7136 39.6323 28.7499 39.5126 28.6944L39.4105 28.8916ZM47.1683 28.9752C46.6049 28.8304 46.5573 27.4407 46.5678 26.9668C46.7806 27.1682 47.1926 28.6479 47.1683 28.9752ZM41.9114 28.1154C41.5653 28.0258 41.5667 27.3682 41.569 27.076C41.5703 26.8432 41.573 25.9338 41.6423 25.7943C41.9013 25.9784 41.8789 26.6126 41.8982 26.9158C41.9485 27.7223 41.9239 27.2872 42.3339 27.8383C42.6231 28.2264 43.187 29.467 42.639 29.8143C42.5094 29.4303 42.2822 27.6803 41.9889 27.562C41.8937 27.7835 41.9099 27.8791 41.9114 28.1154ZM39.6778 27.2431C39.7326 27.3084 39.7549 27.2219 39.6818 27.3451C39.6738 27.3315 39.5823 27.4067 39.6778 27.2431ZM39.4906 27.1459C39.5122 26.9747 39.6245 26.8046 39.7945 26.7664C39.7567 26.9603 39.6955 27.1179 39.4906 27.1459ZM39.601 26.6304C39.6117 26.4758 39.6391 26.3748 39.7987 26.3371C39.7771 26.4966 39.7417 26.5771 39.601 26.6304ZM39.6226 26.2275C39.5979 26.0374 39.6902 25.9531 39.8441 25.8798C39.7998 26.0238 39.7303 26.1247 39.6226 26.2275ZM40.1117 26.2547C40.0069 26.0068 40.109 25.8083 40.2201 25.599L40.1117 26.2547ZM41.2229 25.7914C41.2202 25.6171 41.2387 25.5518 41.3982 25.4879C41.3702 25.6254 41.3426 25.7218 41.2229 25.7914ZM39.3999 25.782C39.4053 25.5404 39.3946 25.2192 39.5338 25.0227C39.5753 25.2287 39.5973 25.6535 39.3999 25.782ZM39.8282 25.5288C39.8762 25.3772 39.8894 25.3247 40.0183 25.2434C39.9933 25.3976 39.9726 25.4714 39.8282 25.5288ZM46.6294 24.9346C46.5307 24.7506 46.4514 24.4228 46.4881 24.2143C46.6537 24.2668 46.6139 24.3344 46.6333 24.5026C46.6517 24.6667 46.679 24.7728 46.6294 24.9346ZM46.4798 23.805L46.4731 24.0324C46.3462 23.9844 46.3341 23.9768 46.3175 23.8514C46.3999 23.7574 46.4011 23.7871 46.4798 23.805ZM40.7054 23.5646C40.6827 23.3128 40.6582 22.8816 40.8165 22.6866C40.8733 22.9303 40.8793 23.3794 40.7054 23.5646ZM46.1237 23.1091C46.0674 22.6711 46.0462 22.0572 46.1422 21.6343C46.1805 21.9946 46.3365 22.8223 46.1237 23.1091ZM46.4162 22.8083C46.3123 22.586 46.4082 21.4518 46.513 21.2235C46.6185 21.454 46.6195 22.6394 46.4162 22.8083ZM41.2489 20.7054C41.3302 20.8282 41.3135 20.8527 41.2093 20.9264L41.2489 20.7054ZM46.8298 19.568C47.1158 20.075 47.0739 22.1571 47.041 22.8846C47.0277 23.1742 47.0857 23.7184 46.7938 23.8491C46.6741 23.6976 46.5966 23.4908 46.5297 23.3042C46.7954 22.7856 46.8399 22.5539 46.8653 21.9503C46.8857 21.4676 46.9007 20.7544 46.8599 20.2816C46.7062 20.3024 46.8271 20.3486 46.6566 20.4355L46.8298 19.568ZM41.2779 20.1006C41.2157 19.8628 41.1706 19.4691 41.2873 19.251L41.2779 20.1006ZM40.2382 19.7276C40.1123 19.6391 40.1313 19.4308 40.1385 19.2744C40.2201 19.415 40.2405 19.5571 40.2382 19.7276ZM38.4321 18.5396C38.5829 18.6678 38.6791 18.8379 38.6713 19.042C38.531 18.9312 38.4505 18.7151 38.4321 18.5396ZM40.1483 18.4364C40.151 18.3606 40.1865 18.3628 40.2058 18.4338C40.2219 18.4916 40.1461 18.4836 40.1483 18.4364ZM40.0787 18.2275C40.1438 18.1655 40.0001 18.2078 40.163 18.1466C40.1189 18.2442 40.1986 18.1795 40.0787 18.2275ZM37.7041 17.7982C38.0038 18.02 38.4294 18.802 38.4914 19.1834C38.2226 19.0647 37.7562 18.1118 37.7041 17.7982ZM40.0073 17.9444C39.8849 17.7815 39.9502 17.421 40.1173 17.3083L40.1626 17.7943L40.0073 17.9444ZM37.2022 17.4972C37.3598 17.5426 37.4581 17.7399 37.4913 17.9014C37.3779 17.8314 37.3741 17.8242 37.2914 17.7282C37.1791 17.5986 37.1779 17.6779 37.2022 17.4972ZM37.1519 16.5986C37.0627 16.7342 37.1439 16.5743 37.0193 16.7055L36.9561 16.7735C36.9119 16.6956 36.8979 16.659 36.871 16.5698C36.8057 16.352 36.8541 16.3691 36.8541 16.3687C36.8549 16.3594 36.8621 16.3567 36.8786 16.3487L36.9307 16.5755C37.0438 16.5982 36.9795 16.5688 37.0415 16.5688L37.1239 16.5844C37.1293 16.5751 37.1429 16.5939 37.1519 16.5986ZM40.6347 13.794C40.7443 13.72 40.8418 13.7608 40.9499 13.6138C41.0455 13.4834 40.9911 13.4162 41.1355 13.3406C41.2157 13.748 41.1409 14.29 41.1147 14.7243L40.8694 14.7794C40.8978 15.5406 41.3891 17.7978 41.0006 18.3258C40.6623 18.175 40.8105 17.5611 40.7553 17.2312C40.6914 16.8551 40.5274 16.5475 40.4223 16.2078C40.3727 16.0475 40.4911 15.8951 40.5175 15.6982C40.6127 14.9983 40.6385 14.5144 40.6347 13.794ZM36.6287 15.6192C36.5463 15.2791 36.1639 13.9804 36.2902 13.7306C36.5109 13.8894 36.6851 15.4196 36.6287 15.6192ZM39.581 13.8002C39.6595 13.8807 39.655 13.892 39.6414 14.0107C39.5409 13.9248 39.525 13.9248 39.581 13.8002ZM39.7435 13.5375C39.375 13.1043 39.1822 11.4455 39.9438 11.348C40.185 11.9807 40.5894 12.373 40.8978 12.9535L40.6339 13.5674L40.5497 13.1743C40.4219 13.2547 40.4586 13.3783 40.3554 13.5038C40.3447 13.209 40.4567 12.8756 40.2273 12.6323C40.1241 12.6995 40.0349 12.9384 39.9397 13.0552C39.7507 13.2868 39.8391 13.4032 39.7435 13.5375ZM46.1214 11.0434C46.1354 11.063 46.2042 11.0123 46.1543 11.1719C46.1286 11.2539 46.1109 11.2278 46.0697 11.2543L46.1214 11.0434ZM39.2197 12.1542C39.1705 11.7528 39.2197 11.4564 39.3194 11.0868L39.5738 11.1027C39.5961 11.2844 39.3342 12.0238 39.2197 12.1542ZM48.1137 10.8934C48.1257 10.6968 48.1322 10.2488 48.2111 10.0988C48.4406 10.4175 48.5029 11.2819 48.1899 11.1484C48.1423 11.0082 48.2467 11.1678 48.2414 10.9912C48.2374 10.8728 48.1858 10.9212 48.1137 10.8934ZM46.9967 11.2531C47.1495 11.2312 47.3611 10.9247 47.4866 10.7947L47.6563 11.0306L47.8559 10.8071L47.8466 10.9451L48.0281 10.9851C47.7014 11.2059 47.9343 11.1814 47.9573 11.3514C47.9758 11.484 47.7669 11.5491 47.6713 11.667C47.7411 11.831 47.8666 11.7551 47.8655 11.9834C47.8651 12.1496 47.8307 12.2483 47.8615 12.4387C47.9886 12.3915 47.9886 12.2687 48.0914 12.1579C48.0161 12.5454 47.5486 13.5155 47.3774 13.9487C47.0218 14.8494 46.6053 15.8584 46.4983 16.8238C46.4749 17.038 46.3657 17.0222 46.3449 17.2739C46.3109 17.6942 46.519 18.4702 46.6139 18.8847C46.7315 19.3976 46.8369 19.3262 46.5229 19.7476L46.4813 19.2891L46.2715 19.2811C46.2489 18.9595 46.2675 18.7379 46.2675 18.4352C46.2675 18.2935 46.2199 18.2144 46.2158 18.0508C46.2038 17.5659 46.1429 16.2812 46.2819 16.0126C46.4638 15.6611 46.6229 15.1984 46.8013 14.8231C46.9045 14.6062 47.3167 13.8598 47.3489 13.6976C47.2617 13.6579 47.2899 13.6883 47.1913 13.633C47.0783 13.5687 47.2287 13.5876 47.0627 13.5672C46.7533 14.0427 46.3862 15.22 46.2207 15.5424V14.7143L46.0767 14.6968C46.0979 14.4796 46.1439 14.3042 46.2562 14.1175C46.4067 13.867 46.4747 13.9282 46.6221 13.7743C46.6754 13.2974 46.5753 13.0026 46.4595 12.5566C46.3326 12.0671 46.3065 11.776 46.3141 11.2662C46.8973 11.2542 46.6795 11.0478 46.9169 10.9843L46.9967 11.2531ZM46.7746 10.8812C46.7879 10.8052 46.7205 10.8642 46.8385 10.7943L46.7746 10.8812ZM47.0917 10.8664C47.0777 10.7123 47.0606 10.7195 47.2153 10.6763C47.2297 10.832 47.2387 10.8246 47.0917 10.8664ZM37.1719 11.7036C37.1759 11.4138 37.3273 11.2263 37.3397 11.0403C37.3503 10.8794 37.1439 10.9043 37.297 10.414C37.3877 10.125 37.6977 9.48243 38.0001 9.44003C38.4577 10.5078 37.6367 12.4319 37.8813 13.4963C37.9943 13.452 38.0419 13.2982 38.1229 13.1947C38.395 13.787 38.3685 17.0354 39.4994 19.3243C39.6797 19.6887 40.4162 20.6611 40.1267 21.044C39.9102 20.8032 40.0345 20.488 39.6525 20.3474C39.5643 20.8774 40.4065 21.6748 39.9374 22.0739C39.8146 21.9552 39.5915 21.1131 39.5213 20.8822C39.4585 20.6743 39.4011 20.4423 39.3693 20.2272C39.3459 20.0666 39.3985 19.6036 39.3511 19.5352C39.1074 19.415 39.2321 19.5674 39.1199 19.5771C39.059 19.378 39.3554 19.3927 39.1997 19.0132C39.1315 18.8466 39.0431 18.568 39.0054 18.3814L38.7801 18.458C38.6315 18.1186 38.5522 17.3594 38.2286 17.134C38.1357 17.3056 38.3345 17.732 38.3647 17.9531C38.0329 17.8215 37.8443 17.1103 37.5681 17.0211L37.6799 17.4028C37.2278 17.25 37.5963 16.8635 37.6001 16.8567C37.345 15.9326 36.8061 16.0494 36.8091 14.7628C37.1542 14.8527 37.0978 15.1864 37.3261 15.3539C37.4107 15.186 37.2119 14.5394 37.1874 14.2991L37.4618 14.2514C37.4221 14.0462 37.3654 14.1774 37.2891 13.9755L37.5559 13.8156L37.3281 13.6331C37.4989 13.4244 37.6478 13.581 37.6715 13.2166C37.6849 13.0186 37.7706 12.6418 37.6809 12.4928C37.5611 12.6251 37.6605 12.6776 37.5199 12.7252C37.453 12.6288 37.4499 12.3839 37.4629 12.2528C37.5581 12.1874 37.6714 12.1186 37.7093 12.0132L37.1719 11.7036ZM46.6854 10.5592C46.7217 10.4828 46.6623 10.5312 46.7443 10.4935C46.7118 10.5712 46.7655 10.5422 46.6854 10.5592ZM47.1018 10.4023C47.0735 10.5304 47.1287 10.4847 46.9862 10.4964L47.1018 10.4023ZM46.1282 27.7602L46.3521 27.7179C46.3587 27.9352 46.4011 28.058 46.4143 28.2379C46.4287 28.4311 46.413 28.5846 46.4389 28.7992C46.4809 29.1435 46.5217 29.4912 46.5557 29.8367C46.6162 30.452 46.7326 31.404 46.6333 31.9982C46.5134 32.714 46.0103 32.959 45.8422 33.5282C45.7046 33.9919 45.5886 34.9867 45.2885 35.331C43.9097 34.475 42.3193 24.3674 41.5535 22.2028C41.4118 21.8032 41.3838 21.7867 41.3861 21.3388C41.3874 21.0251 41.3418 20.5984 41.4186 20.3088C41.5157 19.943 41.5086 19.7759 41.4133 19.4094C41.3282 19.0828 41.3558 18.7411 41.3517 18.404C41.3335 17.0339 41.2474 15.6491 41.3982 14.2862C41.4862 13.4883 41.5634 13.3379 41.1687 12.5952C40.931 12.1484 40.6241 11.7199 40.3191 11.317C40.0519 10.9636 39.4407 10.256 39.2125 11.0718C39.127 11.3786 38.9257 12.1278 39.0802 12.43C39.1947 12.6538 39.1589 12.5283 39.0802 12.7951C39.107 12.991 39.1097 12.7312 39.1702 12.9868C39.3183 13.6123 39.1962 13.7911 39.1966 13.7944C39.2782 13.9823 39.2435 13.7382 39.3119 13.9714C39.3297 14.0322 39.3441 14.1751 39.3554 14.248C39.3822 14.4223 39.4143 14.5916 39.4537 14.7628C39.6733 15.7224 40.067 17.074 39.7141 18.0147C37.9245 16.9931 38.6429 12.1058 38.5575 10.151C38.5378 9.69563 38.5213 8.95257 37.9066 8.9551C37.1711 8.9591 36.7146 10.7278 36.5959 11.3083L37.0543 11.4863C37.0557 11.5872 36.9243 11.8204 36.9443 12.1492C36.9591 12.395 37.0457 12.6214 37.0673 12.8272L36.8314 12.9471C36.8866 13.1675 37.0653 13.0602 36.9746 13.376C36.9175 13.5752 36.8817 13.672 36.8537 13.889L37.0014 13.9922L36.9021 14.514L36.6794 14.4106C36.6423 14.1104 36.6258 13.8107 36.6631 13.5148C36.6829 13.3591 36.8242 12.8204 36.7781 12.7362C36.6061 12.8152 36.7123 12.9086 36.4999 12.9683C36.5218 12.5023 36.6629 12.119 36.6829 11.6882C35.7334 11.3926 36.0237 12.9403 36.0993 13.4714C36.1563 13.8712 36.2074 14.2662 36.2554 14.6671C36.323 15.2288 36.3638 15.2322 36.5585 15.722C36.8042 16.3403 36.8805 17.1367 37.1707 17.7856C38.059 19.7684 39.7193 21.1691 39.4597 23.4694C39.1177 26.4934 38.8145 29.3518 37.2743 32.0523C36.8374 32.8187 36.7301 33.1267 36.5434 33.9952C36.2195 35.5022 36.0434 37.0423 35.7119 38.5474C35.5191 39.4227 35.2134 39.6396 34.8595 40.4046C34.5569 41.0603 33.395 43.8092 33.4959 44.3766C33.9465 44.2306 33.9759 44.143 34.4823 44.3607C34.7209 44.4635 35.137 44.768 35.3823 44.6108C35.2637 44.2582 34.9726 44.5398 34.7223 44.217C34.589 44.0447 34.3403 43.816 34.2382 43.6191C34.7077 43.499 35.4617 43.8443 35.5535 43.8066C35.7278 43.5892 35.5731 43.5194 35.4715 43.3711C36.1919 43.2582 36.4447 42.6119 37.325 42.8946C37.5102 42.4966 37.5483 42.3836 37.989 42.1806C38.3246 42.0256 38.7759 41.9014 39.1445 41.9871C39.0435 42.353 38.4097 42.4339 38.2393 42.6455C38.3299 42.7631 38.5238 42.8035 38.5786 42.9354L38.5522 43.314C38.3639 43.3482 38.2434 43.2998 38.0893 43.4191C38.1833 43.5715 38.7959 43.9532 38.4743 44.158L38.4078 43.8754C38.2883 43.957 38.3363 44.118 38.2434 44.2722C38.1655 44.4022 38.0597 44.4415 37.9766 44.5474L38.1954 44.6691L38.1511 44.9204L37.9111 44.9386C37.9018 45.0375 37.9005 45.1971 37.9399 45.2874C38.0473 45.5358 38.0654 45.2526 38.1758 45.4507C38.1006 45.6514 38.1523 45.4454 37.9743 45.5482C37.9966 45.9307 37.977 47.1058 37.7774 47.388L37.5963 47.2066C37.2929 47.373 37.2453 47.6076 36.7981 47.5804L37.1703 47.2615C37.1637 47.0774 37.1823 46.8015 37.1001 46.6608C36.8499 46.8631 36.8594 47.2796 36.4878 47.4315L36.4054 47.0302C36.2754 47.0831 36.2629 47.3666 36.2301 47.5124L35.9522 47.1268C35.8461 47.2111 35.7029 47.5926 35.9046 47.7082C36.0305 47.7803 36.4493 47.8672 36.6095 47.9051C38.551 48.3651 38.2253 47.362 38.2751 46.2878C38.3295 45.1176 38.6849 45.4246 38.9607 45.1596L38.6606 44.9382C38.6301 44.2008 38.7355 44.3943 39.0235 44.3754C39.0169 44.1774 38.9146 44.1271 39.0485 43.9812C39.4937 44.1162 39.1482 44.4683 39.1391 44.57C39.6146 44.6071 40.3274 44.7064 39.9937 44.0084L39.8074 44.0976C39.7899 43.7159 39.6259 43.7646 39.293 43.7635C39.2487 43.4154 39.4267 43.4267 39.5182 43.2234C39.4525 43.1282 39.3814 43.0102 39.2778 42.9687C39.2162 43.2174 39.1743 43.6618 38.9294 43.7824C38.8023 42.8908 40.1657 40.1544 40.5443 39.1588C41.7557 35.9758 40.4431 36.6455 39.5674 34.7618C39.3719 34.3411 39.3002 33.8944 39.3369 33.4328C39.3946 32.7155 39.2971 32.6743 39.197 32.0363C39.1365 31.65 39.4389 29.6783 39.5973 29.3151C39.6939 29.0944 39.7949 29.0312 39.7965 28.7516C39.7975 28.4 39.7749 28.4239 39.8637 28.0663C39.9695 27.6392 40.0754 27.2148 40.2031 26.7938C40.3206 26.406 40.4374 25.9918 40.6177 25.6282C40.8803 25.0991 40.9469 25.463 40.7137 24.4312C40.2333 24.41 40.2983 24.472 40.2061 24.8824C39.7627 24.5578 40.3033 20.9839 40.4963 20.375L40.5527 20.5836C40.8531 20.3678 40.5594 19.6912 40.9771 19.5035C41.0365 20.844 40.3803 23.5094 40.4487 24.1095L40.8713 24.3023L41.0902 22.7335C41.6341 22.9058 42.2089 25.1546 41.8978 25.5942C41.8057 25.3488 41.8203 25.3394 41.6846 25.1016C41.5985 24.9506 41.6207 23.9224 41.2251 23.3779C40.9091 23.5634 41.1129 24.2698 41.1751 24.5464C41.2954 25.0794 41.2417 25.2487 40.8797 25.5983C40.8607 25.8742 41.2069 27.4306 41.2845 27.8222C41.7447 30.1315 42.105 32.4528 42.2406 34.8042C42.3203 36.19 42.3691 38.1022 41.3694 39.1782C41.0138 39.561 40.7625 42.0559 39.6354 42.7423C39.6959 42.839 39.7065 42.8072 39.759 42.8904C39.8142 42.978 39.751 42.98 39.9007 43.0272C40.0595 42.9207 40.0122 42.6447 40.2862 42.5423C40.5097 42.4588 40.7934 42.4887 40.8709 42.2191L40.4427 42.0083C40.4938 41.8983 40.7073 41.743 40.8138 41.6523C41.0123 41.4826 41.1061 41.4754 41.3669 41.4863L41.2757 41.0218C41.7713 41.1598 41.7126 41.8658 42.0323 41.93C42.2667 41.8544 42.1707 41.625 42.4217 41.7006C42.5271 41.938 42.1582 41.91 43.0317 41.9282C43.3261 41.9348 43.6069 41.9202 43.8969 41.9739L43.8957 43.0344C44.2471 42.9592 45.0398 41.6746 45.2397 41.5982C45.2343 42.0034 44.9237 42.582 45.0911 42.7656C44.7971 42.8651 44.8923 42.9615 44.8387 43.2604C44.6342 44.3943 44.1167 43.4788 43.9539 44.601C43.6183 44.6452 43.3007 44.5828 43.1281 44.2896C43.3582 43.6498 43.8194 44.2472 43.9743 43.6296L43.6429 43.737C43.6389 43.7343 43.6362 43.7124 43.6362 43.717L43.615 43.6422C43.5847 43.5243 43.6797 43.6342 43.5802 43.5198L43.3573 43.6803C43.2654 43.5352 43.4275 43.5208 43.0647 43.3855L42.8451 43.6562C42.4721 43.5068 42.3583 43.409 42.2953 43.0215C42.149 43.0359 41.3681 43.3035 41.3219 43.4191C41.5499 43.5239 42.1126 43.5616 42.4566 43.7048C43.0114 43.9366 43.0099 44.013 43.0099 44.584C42.3013 44.7866 41.9982 44.5171 41.3545 44.5678C41.2601 44.5744 41.0339 44.6392 40.9781 44.6271C40.9274 44.6164 40.3337 44.0496 40.1745 44.7311C40.3763 44.7896 40.8979 44.7458 41.105 44.7122C41.4327 44.6588 41.6822 44.6887 42.0061 44.7015L41.6935 45.5126C41.5261 45.4286 41.2185 45.1206 41.0846 45.1146C41.0779 45.2862 41.4747 45.7322 41.5586 45.9336C41.3654 46.2948 41.1833 46.1335 40.8609 46.1135C40.7735 46.4238 40.5834 46.5844 40.2781 46.6491C40.0603 46.1879 39.7981 46.0303 39.4863 45.7083C39.5278 45.5542 39.6654 45.4766 39.6075 45.3844C39.5426 45.3618 39.0134 45.6304 38.9514 45.7083L39.2307 45.8327C39.2031 45.9819 39.0762 45.9718 38.9775 46.0983C39.0119 46.2042 39.0406 46.1792 39.1314 46.2586C39.3446 46.4427 38.9787 46.3346 39.5797 46.8074C39.8154 46.9926 40.1697 47.2367 40.3314 47.4742C40.9478 48.3782 39.3034 48.3359 39.2723 48.9515C39.6802 49.1254 39.8543 48.764 39.9931 48.9379C40.0875 49.0562 40.0011 49.0354 40.0011 49.0362C39.8477 49.0566 40.0007 48.9111 39.8027 48.956C39.7131 48.976 39.6171 49.0588 39.5869 49.1254C39.6874 49.1931 39.8462 49.1904 39.9743 49.216C40.1863 49.2584 40.1198 49.3143 40.2918 49.374C40.3614 49.353 40.7166 49.0328 40.6671 49.436C40.3685 49.5804 39.7071 49.3876 39.4039 49.2712C38.7131 49.0063 38.6473 48.8071 38.4225 48.7043C38.3207 48.8324 38.2595 49.1338 38.2157 49.306C38.1499 49.5631 38.1231 49.7275 38.3899 49.8726C38.577 49.69 39.0358 49.2894 39.1167 49.8239C38.995 49.8371 38.8786 49.8828 38.7985 49.8911C38.6318 49.9086 38.673 49.8322 38.5389 49.8219C38.2795 50.5283 39.1637 50.0166 39.4309 49.9082C39.5631 49.8544 39.797 49.7788 39.9385 49.7675C40.2475 49.7415 40.2551 49.8348 40.4853 49.8742L40.8027 49.628C40.8931 49.8888 40.5345 49.978 40.3145 50.1144C40.1626 50.209 39.859 50.4679 39.8522 50.661C40.1395 50.6606 40.3637 50.5091 40.5689 50.3371C40.9026 50.0571 41.0413 50.1731 41.4279 50.1946C41.3921 50.0264 41.2159 49.9172 41.1229 49.7698C41.2405 49.5914 41.6762 49.2807 41.7009 49.1027C41.5217 49.1208 41.3369 49.3223 41.1638 49.3944C41.2427 48.927 42.0217 48.7055 42.0414 48.4772C41.8455 48.4183 41.5066 48.8823 40.9718 48.7134L40.9598 48.6699C40.9545 48.611 40.9505 48.6666 40.9585 48.5996C40.9729 48.4779 41.0398 48.3514 41.081 48.2376C41.1883 47.9406 41.5738 47.0146 41.937 47.1192C42.1854 47.2624 42.1185 47.3918 42.2587 47.5338C42.6351 47.4027 42.4609 47.3339 43.0929 47.247C43.4874 47.193 43.6042 47.0146 43.583 46.6112C43.4439 46.6464 43.3899 46.7276 43.3003 46.838L43.1337 46.7406C43.0686 46.708 43.1155 46.7486 43.0713 46.7095C43.2013 46.4895 43.6413 46.412 43.6401 46.1028C43.329 46.1615 43.0154 46.426 42.7678 46.4963C42.6366 45.9891 42.6321 45.7884 42.7847 45.2858C42.7767 45.2818 42.7629 45.2703 42.7579 45.2778L42.569 45.2242C42.6619 44.909 43.0471 44.8087 43.3438 44.786L43.7297 45.314C44.0955 45.1704 43.9398 44.9067 45.1289 45.2518L45.1281 44.5926L44.8091 44.5979L44.7743 44.2516C44.961 44.1678 45.0495 44.1768 45.1202 43.9667L45.6913 44.0668C45.7113 43.8806 45.6647 43.7452 45.7665 43.6058C45.9615 43.3382 45.7873 43.4515 45.8919 43.2176C45.9245 43.1462 46.0767 43.0158 46.1414 42.9496C46.2211 42.8672 46.3163 42.7202 46.3847 42.6771C46.6793 42.7954 46.6494 43.1435 46.9653 43.1915L47.0798 42.7776L46.6838 42.6627C46.7185 42.0115 46.7839 42.1876 46.8618 41.8098C46.7207 41.7194 46.4578 41.7208 46.2797 41.7212C46.4362 41.0554 47.4125 42.1548 47.7337 42.2198C47.739 41.9563 47.6343 41.7546 47.3803 41.6819L47.4661 41.3988C47.6426 41.4922 50.3741 43.4758 49.379 43.6795L49.5253 43.3684C49.3786 43.2747 48.6963 43.3854 48.4806 43.4006C48.3599 43.2218 48.4019 43.0388 48.0935 43.0282C47.8985 43.0215 47.7087 43.1231 47.5515 43.2255C47.6823 43.718 48.747 44.0022 49.1061 44.3859L48.8706 44.9891C48.2497 44.8344 47.2541 44.2656 47.0099 43.7006L46.3825 43.9036C46.4669 44.3262 47.8109 45.2264 47.9367 45.5264L47.6834 45.4116C47.7087 45.5915 47.9162 45.7075 48.0157 45.8368C47.4578 46.8758 47.1105 46.1434 46.6838 46.1648C46.8278 46.6018 47.2246 46.4551 47.4337 46.6104L47.1702 47.0379L46.7155 46.6702C46.4891 46.8463 46.6138 47.1763 46.1587 47.098C46.0277 47.2443 46.189 47.3362 45.7759 47.2194C45.5646 47.1604 45.489 47.1438 45.2626 47.1638C45.2823 47.2874 45.7933 47.6407 45.8851 48.0304C45.5673 47.9204 45.6534 47.507 45.1742 47.4948C45.119 47.945 45.7838 48.2595 45.8697 48.4915C45.5619 48.7043 45.1913 48.8192 44.8265 48.8858C44.8643 49.0191 45.0491 49.1802 45.0197 49.3034C44.9017 49.8015 43.7925 49.1431 43.7033 49.1242C43.6899 49.5498 43.8729 50.2127 43.3057 50.3658C42.7783 50.5083 42.3414 50.1352 41.9273 50.0615C41.9038 50.6818 42.7546 50.7491 42.5637 51.3628C42.493 51.5896 42.3154 51.7767 42.0826 51.8466C41.8554 51.9143 41.7281 52.1002 41.4143 52.1947C41.4714 51.403 40.7957 52.0991 40.7465 52.2876L41.0927 52.3315L40.7518 52.4374C40.8565 52.5942 40.9098 52.4699 40.9669 52.6384L40.7431 52.7136C40.697 52.6234 40.7275 52.595 40.6471 52.5311L39.9445 52.8251L40.0893 52.9578L39.8149 53.1928C39.7351 52.9975 39.8255 52.9571 39.5885 52.9048L39.6229 53.3626C38.9241 53.5984 37.9629 54.34 37.1574 54.6608C36.9031 54.7622 36.3323 54.8695 36.1729 54.95C36.2697 55.1443 36.4034 55.0456 36.5379 55.3211C37.0229 55.2523 38.6133 54.3539 39.1043 54.0614C39.7778 53.6592 40.7809 52.8206 41.5107 52.6796C41.3743 53.1312 40.4513 53.7402 40.0745 54.0644C39.2865 54.7418 38.5865 55.4943 38.2138 56.4912C38.0679 56.8818 38.0263 57.243 37.9077 57.6032C37.7445 58.1018 37.2542 58.2594 36.9205 59.4854C36.4761 61.1159 36.2674 62.8095 36.2409 64.499C36.2275 65.3516 36.2289 67.4647 36.9019 68.1175C37.2923 68.4966 37.5687 68.2755 37.7097 67.8404C37.8506 67.8015 37.9587 67.9451 37.9243 67.5967C37.8979 67.3295 37.8427 67.4731 37.9297 67.1676C38.2078 66.1835 38.2119 65.366 38.3998 64.5122C38.5823 63.6803 39.5299 62.0207 38.8681 61.2947L39.2521 61.106L39.5733 60.1866C39.3254 60.2035 39.3182 60.2991 39.2529 60.5051L39.1489 60.3339L38.9119 60.6699C38.0071 60.7228 38.4025 60.5803 37.8499 60.4968L37.7649 60.092C37.6647 60.1642 37.6465 60.3104 37.6201 60.4148C37.5815 60.5698 37.5846 60.5739 37.7369 60.6522L37.2126 60.563C37.0177 60.0512 37.5113 59.617 37.7225 59.2458L37.5521 59.1808C37.8302 58.8224 37.6594 58.9759 37.6349 58.6671C37.6215 58.4936 37.6938 58.1842 37.7671 58.0394L38.1557 57.8735C38.0967 57.4343 38.3189 56.545 38.5838 56.2162C38.8053 56.2955 38.7203 56.407 38.8738 56.4912C39.1863 56.2298 38.9655 56.1126 39.0453 55.7755C39.1511 55.3283 39.4951 55.6144 39.7014 55.6254C39.7094 55.455 39.6225 55.3386 39.7054 55.1824C39.9333 54.9916 40.3819 55.4674 40.7122 55.346C40.685 55.1847 40.2455 54.7198 40.1034 54.5739L40.529 54.2284L40.533 54.447C40.6781 54.3918 40.8097 54.1888 40.9449 54.0958C41.1459 53.9586 41.3282 54.0698 41.5515 54.0848C41.6593 53.8986 42.3846 52.9064 42.5165 52.8572C43.0494 52.8584 42.8593 52.9843 43.1291 53.095C43.425 52.7688 43.1425 52.2843 43.3306 51.808C43.6915 50.8972 44.8439 50.0438 45.5178 49.3532C46.0333 48.8246 46.4589 48.2395 46.9102 47.6514C47.1449 47.3448 48.0573 46.0492 48.3747 46.0288C48.4662 46.3346 48.3985 46.3331 48.2882 46.5783C48.4582 46.8063 48.5807 46.7802 48.6121 47.157C48.6355 47.4394 48.5762 47.7414 48.5927 48.0127C48.7231 48.015 48.7995 47.8426 48.8834 47.7546C49.0331 47.597 49.0585 47.5931 48.9666 47.3826C48.7701 46.9299 48.6113 46.4891 48.6019 45.9971C48.5966 45.7026 48.5871 45.7695 48.7682 45.5767C49.7175 44.5658 50.2853 43.1676 50.9467 41.9208C51.0405 41.7439 51.2827 41.3675 51.4119 41.2235C51.6167 40.994 51.5483 41.1951 51.8087 41.1079C51.9346 41.0655 52.0417 40.9254 52.0915 40.8086C52.3005 40.3191 52.2545 39.2336 52.2067 38.6927C52.1867 38.4588 52.1746 38.3688 52.1905 38.1315C52.2098 37.8419 52.1342 37.8798 52.1021 37.6344L51.8526 35.569C51.8087 35.1736 51.8326 34.7806 51.7986 34.4314C51.4245 34.5171 51.4717 34.79 51.491 35.0927L51.6505 35.123C51.6531 35.2919 51.6901 35.5296 51.6074 35.6256C51.5279 35.5088 51.5967 35.4431 51.4785 35.3184C51.2331 35.501 51.4339 35.7814 51.4811 36.0111C51.3103 36.0834 51.1126 36.2035 51.0699 36.3914C51.3083 36.7138 51.2018 36.4231 51.3617 36.4802C51.359 36.5671 51.1561 36.6102 51.0706 36.7142C51.2071 37.1359 51.2214 37.0951 51.0639 37.5283C50.7434 37.3726 50.7373 37.0388 50.6977 36.7214C50.5502 36.732 50.6379 36.7568 50.5109 36.8499L50.6507 36.0376C50.3261 36.1347 50.2339 36.7698 49.6707 36.2304C49.7245 35.7678 50.379 35.722 50.4513 35.3576L49.6281 35.536C49.4999 35.0912 49.3751 34.9586 49.4806 34.459C49.5535 34.1139 49.6878 33.6463 49.633 33.3031C49.5498 32.7796 48.9553 32.0948 48.6763 31.619C48.2689 30.9247 48.4677 30.221 48.2655 29.4182C48.1937 29.1351 47.8403 27.4203 47.7062 27.3406C47.567 27.7256 47.9027 28.6158 48.0391 29.0002C48.1333 29.2651 48.5173 30.6192 48.1397 30.6726C48.0599 30.5327 48.1559 30.3751 47.9965 30.275C47.9182 30.4666 48.1287 31.8744 48.2549 32.0268C48.3434 31.9236 48.3097 31.5858 48.3117 31.4391C48.5591 31.594 48.9341 32.537 48.9602 32.8488C48.5931 32.7502 48.5777 32.2282 48.4541 32.0158C48.2746 32.1402 48.1298 33.0544 47.8766 33.3243C47.5565 33.1399 47.9899 32.8684 48.0993 32.6844L47.979 32.3303C47.6805 32.4694 47.8751 33.6426 47.0629 33.3552V32.7102L46.7246 32.8587C46.7401 32.6304 46.7858 32.4358 46.9411 32.2736C47.0923 32.1156 47.3241 32.0899 47.4273 31.9898C47.4563 31.7864 47.4419 31.4035 47.5991 31.2867C47.7761 31.7603 47.2462 32.416 47.2386 33.0128C47.3387 32.9687 47.4174 32.8182 47.4275 32.7388C47.4355 32.9172 47.2526 33.1834 47.3202 33.3284C47.5723 33.2106 47.7417 32.1772 47.7567 31.8786C47.7886 31.2731 47.7103 30.7024 47.6385 30.1056C47.705 29.9654 47.7633 30.1136 47.7291 29.8154L47.6007 29.806C47.5217 29.1072 47.5255 28.9894 47.6061 28.3244L47.3173 28.182C47.3646 27.9458 47.4231 27.5459 47.3517 27.3403C47.2027 27.366 47.1934 27.541 47.0377 27.586C46.9557 27.4435 46.9269 27.3483 46.9761 27.1842C47.0587 26.9079 47.089 27.1211 46.9734 26.8426C46.8857 26.6312 46.8527 26.1864 46.8346 25.9475C46.8045 25.5544 47.1003 25.511 46.8641 25.1471C46.719 24.9226 46.8051 24.4546 46.8109 24.1666L47.0111 24.3775C47.1109 24.1923 46.9851 23.984 47.2017 23.2844C47.4851 22.3699 47.371 20.7832 47.0645 19.9158C46.8875 19.4139 46.6615 18.3175 46.6426 17.7891C46.5361 14.855 49.3658 12.153 48.2051 9.71629C47.8982 9.07229 47.4503 8.52923 46.7946 9.20683C46.3509 9.66603 46.1347 10.303 45.9405 10.8998C45.6762 11.7096 45.5639 12.2411 45.6286 13.1016C45.8334 15.8494 45.8913 18.8424 45.9895 21.6328C46.0046 22.05 45.9018 22.4674 45.9249 22.8536C45.9475 23.2319 46.0402 23.1495 46.0587 23.9811C46.0681 24.3998 46.0859 24.8194 46.0965 25.2378C46.1166 26.0814 46.1286 26.9166 46.1282 27.7602Z" fill="#02282E"/>
<path fill-rule="evenodd" clip-rule="evenodd" d="M50.9334 29.2585L50.8858 29.124L51.0608 28.9902C51.0568 29.1512 51.0461 29.1679 50.9334 29.2585ZM51.0692 28.2366C51.2165 28.1482 51.1489 28.223 51.1821 28.2366C51.1409 28.2619 51.2177 28.3704 51.0692 28.2366ZM51.2822 28.8636C51.3073 28.601 51.3802 28.6129 51.4928 28.4172L51.3628 28.288C51.4701 27.8356 51.2816 27.8385 51.5869 27.7819C51.5034 28.1984 51.6886 28.6928 51.2822 28.8636ZM51.3897 25.2016C51.2929 25.0848 51.342 25.111 51.4377 25.0739L51.3897 25.2016ZM51.7706 28.0332C51.7426 27.7489 51.8889 27.1045 51.7997 26.9016C51.571 27.0917 51.7416 27.619 51.344 27.6583C51.2822 27.065 51.3141 26.0634 51.4732 25.4927C51.494 25.4178 51.5204 25.154 51.5382 25.0403C51.5661 24.8615 51.5865 24.7039 51.6277 24.5202C51.6769 24.3028 51.782 23.7544 51.9612 23.6539C52.1293 23.8356 51.9518 23.9714 52.2189 24.0686L52.3629 23.7979C52.5322 24.4321 52.1822 27.5687 51.7706 28.0332ZM50.9324 23.6584C51.0449 23.7643 51.0302 23.7767 51.0354 23.9301C50.944 23.8648 50.8708 23.7711 50.9324 23.6584ZM51.7865 23.2237C51.8236 23.0983 51.7985 23.1154 51.9165 23.059C51.9021 23.1962 51.8992 23.1796 51.7865 23.2237ZM51.3156 22.6908C51.3222 22.5291 51.1932 22.4471 51.449 22.4263C51.4812 22.6836 51.4384 22.9324 51.1726 23.019C51.2116 22.8878 51.3106 22.7967 51.3156 22.6908ZM52.2249 22.8803C52.1258 22.5688 52.1701 21.17 52.3024 20.9008C52.4418 21.2615 52.4921 22.6013 52.2249 22.8803ZM51.7321 22.8946C51.7513 22.6735 51.796 22.8137 51.8716 22.6564C51.681 22.3424 51.4652 22.181 51.4029 21.6183C51.5589 21.6754 51.9074 22.0101 52.0298 22.144C52.0312 22.3035 52.0076 22.4524 51.9698 22.607C51.9274 22.782 51.9124 22.8787 51.7321 22.8946ZM51.5741 21.4346L51.5525 21.3941C51.5518 21.3901 51.5592 21.3822 51.5592 21.3707C51.5585 21.3571 51.5698 21.3544 51.5754 21.3458L51.5962 21.3946C51.5966 21.3986 51.5896 21.4197 51.5896 21.4152C51.59 21.4099 51.5789 21.4272 51.5741 21.4346ZM51.1561 22.3719C51.0593 22.2098 51.014 21.534 50.9792 21.2902C50.9376 21.003 50.8613 20.4628 51.1042 20.2621C51.1621 20.3521 51.3292 21.6655 51.3394 21.9236C51.3474 22.1243 51.379 22.3602 51.1561 22.3719ZM50.9165 20.0969C50.8737 20.0285 50.7793 19.3856 50.7785 19.2678C50.7777 19.132 50.8646 19.0908 50.9017 18.9268C50.9334 18.787 50.9301 18.6135 50.9425 18.4672C51.0354 18.8819 51.2113 19.702 50.9165 20.0969ZM51.2513 19.3308C51.1273 19.0096 51.0529 18.0885 51.2861 17.8292C51.4237 18.2741 51.2808 18.2261 51.5245 18.7121C51.6421 18.9461 51.7453 19.2692 51.8386 19.5267C52.0685 20.1653 52.2498 20.6791 52.084 21.376C51.8469 21.2619 51.6236 20.6703 51.5634 20.4137C51.5076 20.1748 51.441 19.1726 51.413 19.1158C51.2604 19.194 51.3854 19.261 51.2513 19.3308ZM50.659 18.6543C50.5396 18.4866 50.4398 17.9577 50.6537 17.9052C50.721 18.1328 50.6821 18.4192 50.659 18.6543ZM51.653 18.3879C51.5764 18.2008 51.4849 17.7408 51.7377 17.6947C51.735 17.8871 51.731 18.2212 51.653 18.3879ZM51.6126 17.4978C51.63 17.4094 51.5692 17.4483 51.6965 17.4165C51.6858 17.5447 51.7181 17.4895 51.6126 17.4978ZM51.622 16.9909C51.6772 16.9123 51.6233 16.9419 51.7141 16.9022C51.6628 17.0167 51.758 16.9547 51.622 16.9909ZM51.6166 16.622C51.622 16.614 51.6578 16.5571 51.6582 16.5563C51.7085 16.4959 51.6934 16.5192 51.7285 16.4973C51.7178 16.6387 51.7378 16.6286 51.6166 16.622ZM50.2988 16.4766C50.3282 16.3356 50.3233 16.334 50.4434 16.2656C50.4328 16.4139 50.4301 16.4298 50.2988 16.4766ZM49.8656 14.2119C49.8429 14.193 49.739 14.2356 49.8804 14.1004L49.8656 14.2119ZM51.0577 17.4355C50.985 17.6959 50.9798 17.9777 50.9141 18.2099L50.8146 17.2993L50.6257 17.2563C50.6217 17.2456 50.6082 17.2509 50.6022 17.247L50.699 16.9461L50.4506 16.9783L50.8562 15.6407C50.7038 15.6514 50.4964 15.8883 50.346 15.9699L50.327 15.6306C50.2288 15.5678 50.169 15.6766 50.0973 15.5624C50.0384 15.468 49.8985 14.9234 49.9109 14.7355C49.9514 14.1383 50.3672 14.1788 50.5005 13.9368L50.2205 13.9642C50.4601 12.8824 51.885 14.1432 51.8332 15.3758C51.8 16.1562 51.3645 16.3375 51.0577 17.4355ZM50.3505 13.5274C50.4836 13.3127 50.7916 13.1544 51.0433 13.1038C50.9073 13.2896 50.5746 13.4359 50.3505 13.5274ZM51.2013 13.0205L51.2637 13.1279C51.1533 13.086 51.1937 13.166 51.2013 13.0205ZM52.5412 23.68V22.2297C52.5086 22.1508 52.4524 21.1692 52.4318 20.9671C52.2717 19.3899 51.9636 19.7047 52.0188 17.3746C52.0501 16.0458 52.2837 13.8468 51.2194 12.8222C48.9993 12.8082 49.4838 15.0468 49.7156 16.5548C50.137 19.2964 50.5728 21.1053 50.807 23.9377C50.8672 24.6672 50.9986 25.908 50.9228 26.5996C50.9108 26.7131 50.8418 26.7361 50.8476 26.8468C50.8618 27.1227 50.9556 26.6035 50.9386 27.8174C50.9333 28.17 50.8721 28.7631 50.8029 29.1086C50.7458 29.3943 50.5837 29.4396 50.51 30.2356C50.4642 30.7303 50.4506 30.9726 50.329 31.4515L50.5256 31.5409L50.3282 31.5955C50.2386 32.0436 50.053 32.7028 50.0137 33.1134C49.9858 33.4047 50.0141 33.5823 50.2405 33.7611C50.6624 34.0948 50.5186 34.1141 50.6714 34.2505C51.1385 33.9527 50.5822 33.6972 50.5289 33.0932C50.7016 33.0135 50.9484 32.8011 50.9518 32.5959C50.793 32.5434 50.7825 32.5755 50.6329 32.6227L51.0048 32.0112C50.9314 31.8679 50.8037 31.8124 50.7942 31.6211C50.7862 31.4563 50.8709 31.3093 50.9129 31.1536C51.0513 30.6464 50.7137 30.8323 51.1498 30.3391L51.0198 30.1343C51.3865 29.878 51.0981 29.2419 51.574 28.9256C51.9621 29.2596 51.5884 30.1615 51.4541 30.5663C51.3253 30.9552 51.1457 32.0619 51.5093 32.311C51.7917 31.8891 52.3189 27.037 52.4044 25.973C52.4312 25.6427 52.4932 23.8092 52.5412 23.68Z" fill="#02282E"/>
<path fill-rule="evenodd" clip-rule="evenodd" d="M13.191 57.8972L13.278 57.6964C13.4757 57.7199 13.6632 57.7906 13.7009 57.9962C13.5565 58.0283 13.3805 58.0419 13.2769 57.9588C13.205 57.901 13.2485 57.9342 13.191 57.8972ZM18.3736 56.1847C18.5081 56.1215 18.6537 56.091 18.7602 56.1923C18.6193 56.2626 18.4937 56.2939 18.3736 56.1847ZM17.9148 55.8858C18.0157 55.9923 17.9976 56.0516 17.8528 56.0974L17.9148 55.8858ZM15.9672 54.6955C16.0253 54.5519 16.0922 54.5323 16.2272 54.5016C16.1874 54.629 16.1066 54.7016 15.9672 54.6955ZM23.4952 54.7579C22.8316 54.0368 23.7084 53.6316 24.0961 54.6244L23.4952 54.7579ZM24.7912 54.4071C24.9038 54.2499 25.247 54.0987 25.4254 53.9998L25.4788 54.2326C25.2289 54.304 25.0705 54.3867 24.7912 54.4071ZM19.2738 53.8152C19.2013 53.7639 19.2122 53.8078 19.2417 53.7227C19.3196 53.7711 19.3146 53.7046 19.2738 53.8152ZM25.7742 51.1602C25.8684 50.797 26.1897 50.7663 26.2565 51.114L25.7742 51.1602ZM15.5086 56.8306C15.4256 56.9988 15.3776 56.9115 15.3322 57.0982C15.9728 57.0528 18.4432 56.648 19.0542 56.4163C19.2705 56.334 19.4829 56.1915 19.6646 56.1242C20.7225 55.7319 26.1209 54.3811 26.4837 54.1222C26.297 53.0995 24.7444 54.1906 24.496 54.2888C24.2621 54.0326 24.3898 54.0043 24.4341 53.7639C24.1725 53.7688 24.0186 53.8296 23.7329 53.7854C23.4102 53.7355 23.4422 53.6422 23.2389 53.5266C22.9325 53.7627 22.9536 54.5028 22.9453 54.8603C22.7706 54.821 22.819 54.8116 22.6656 54.8894C22.6616 54.6392 22.694 54.575 22.4717 54.4711C22.3458 54.412 22.1668 54.2998 22.0484 54.2612C21.9902 54.3436 22.0008 54.3819 21.9501 54.445C21.8817 54.53 21.8444 54.502 21.7842 54.6056L22.017 54.7016L22.0237 55.1192C22.2252 55.1563 22.2517 55.089 22.3774 54.9876C22.3541 55.3263 22.1277 55.3996 21.8136 55.3528C21.6401 55.3271 21.1454 55.2488 21.0128 55.1858C21.1302 54.8615 21.6506 54.7934 21.7592 54.6378C21.6522 54.5655 21.583 54.5708 21.445 54.5628C21.405 54.4586 21.4009 54.4196 21.3049 54.386C21.0826 54.7715 20.8725 55.2346 20.4345 55.406C20.306 55.264 20.3202 54.8842 20.1374 54.8014C20.044 55.1223 20.0402 55.7599 19.662 55.8339L19.7654 55.3203C19.4696 55.3082 19.4782 55.572 19.3126 55.7556C19.2166 55.5992 19.1124 55.3071 18.9393 55.2462C18.9056 55.386 18.7809 55.6847 18.8194 55.804C18.9824 55.8442 18.9714 55.7671 19.0905 55.8627C18.9049 55.9874 18.3897 56.0086 18.1437 56.0388C18.1437 55.8547 18.1928 55.3792 18.1077 55.255L17.8708 55.6283C17.7838 55.5051 17.72 55.242 17.598 55.1907C17.5348 55.278 17.4377 55.6367 17.4569 55.7455L17.7305 55.7342C17.6901 56.0139 17.7544 56.3934 17.5008 56.5098C17.4429 56.2584 17.5178 56.1382 17.5114 55.8959C17.4189 55.8619 17.4696 55.8899 17.346 55.9295L17.259 55.4458C17.0814 55.5218 16.7706 56.2943 16.7934 56.501C17.0046 56.5399 16.962 56.464 17.1041 56.4474C17.134 56.6507 16.9082 56.6186 16.5946 56.6624C16.361 56.695 16.1256 56.7142 15.8901 56.7282C15.9702 56.4148 16.0753 55.9039 15.6988 55.7447C15.3236 56.0584 16.0102 56.7595 14.6065 56.9678C14.692 56.6499 14.8549 56.7799 14.5741 56.4414C14.2754 56.4352 14.1526 56.6674 14.0218 56.8979C13.8121 57.2675 14.1553 57.1882 14.1372 57.5604C13.8442 57.6564 13.5913 57.4088 13.3268 57.3276C13.3597 57.1579 13.4652 56.8956 13.54 56.7354C13.5948 56.6182 13.6224 56.5959 13.6896 56.4968C13.8057 56.3264 13.7074 56.3944 13.733 56.1946L14.2452 56.2486L14.2808 55.6858L14.8201 55.625C14.9112 55.8128 15.2086 56.3563 15.3413 56.4424C15.4074 56.3211 15.2597 55.877 15.2438 55.6975C15.1977 55.1774 15.551 55.3584 15.6818 55.2179L15.3152 55.1015C15.4414 54.9439 15.6534 54.9563 15.8322 54.9559C15.8114 55.1528 15.8508 55.3967 16.0506 55.4715C16.2325 55.1454 16.0972 55.1683 16.0685 54.9416C16.2768 54.7035 16.5148 54.6543 16.8232 54.657L16.9056 55.013C17.0973 54.8796 16.9902 54.513 17.1089 54.3471C17.2084 54.5459 17.2957 54.6891 17.5104 54.7639L17.3233 54.191C17.6018 53.7654 17.8373 54.089 18.0765 53.9252C17.97 53.8372 17.7625 53.8436 17.6245 53.8092C17.8724 53.5738 18.3064 53.7114 18.6298 53.7027C18.5944 53.5318 18.4692 53.5795 18.4918 53.4446C18.6298 53.3572 18.8136 53.4407 18.9304 53.5579L18.6702 53.7178C18.8373 53.8486 18.9168 53.7454 19.1249 54.013C19.2369 54.1566 19.3298 54.3467 19.5278 54.3739L19.3824 53.3156C19.373 53.3115 19.3593 53.302 19.3552 53.3103L19.2561 53.3006C19.2548 53.3002 19.1813 53.383 19.1706 53.2544C19.1653 53.1906 19.2973 53.1014 19.3601 53.0783C19.7202 52.9448 19.6844 53.212 19.8657 53.2824L19.9134 52.9588L20.2474 52.8556L20.3605 53.0295C20.5253 52.9732 20.5306 52.8379 20.8325 52.746C21.0362 52.684 21.2476 52.6448 21.4524 52.5911C21.4705 52.4176 21.359 52.4735 21.4698 52.3795C21.6414 52.2324 21.5325 52.4207 21.6062 52.4974C21.6682 52.5608 22.064 52.5534 22.1626 52.5283C22.2222 52.2411 22.1244 52.5196 22.0578 52.3476C22.1081 52.2158 22.4554 52.082 22.598 52.0332C22.6581 52.1655 22.7022 52.3636 22.8516 52.4059C22.9366 52.266 22.9245 52.0782 22.9362 51.916L23.7829 51.751L24.0644 52.3152C23.7716 52.1776 23.6622 52.0586 23.2941 52.2106C23.0572 52.308 22.9113 52.4739 22.7646 52.6723L22.9136 52.9846C23.0557 52.855 22.999 52.5276 23.259 52.4327C23.5198 52.3371 23.8418 52.4512 24.1094 52.3995C24.1593 52.5767 24.3948 53.1032 24.5252 53.22C24.6222 53.0783 24.5078 52.7252 24.4677 52.5382C24.3921 52.189 24.4257 52.1304 24.4409 51.7967L24.0784 51.9584C24.2005 51.4951 24.7304 51.0948 25.2141 51.0955L25.0369 51.3526L25.5033 51.3027C25.5641 51.568 25.9852 53.0122 26.1726 53.1426C26.5105 52.8398 25.842 51.9002 25.9164 51.4032C26.1545 51.2187 26.551 51.1552 26.8397 51.2963C26.9293 51.6054 26.602 51.8534 27.1285 51.9811C27.2041 51.6708 26.4826 50.2772 27.1114 49.9923L27.2445 50.4398L27.4845 50.455C27.571 50.6126 27.6652 50.6427 27.6524 50.8238C27.4997 50.7683 27.5492 50.6132 27.3349 50.5664C27.3673 50.7304 28.1361 52.2759 28.2306 52.3488C28.4282 52.0548 27.9309 50.9871 27.8662 50.6083L28.0182 50.4579L27.7824 50.2886C27.6417 50.3044 27.446 50.4666 27.4066 50.179C27.3832 50.0071 27.5529 49.9492 27.5885 49.7648L27.3349 49.7175C27.3858 49.586 28.1944 49.3403 28.3456 49.3687C28.3096 49.5183 28.2764 49.3203 28.2634 49.5452C28.7166 49.97 28.7016 49.866 29.0477 50.538C29.1913 50.8174 29.4805 51.5294 29.793 51.5907C29.6498 50.9848 28.7696 49.984 28.7129 49.4462C28.6672 49.0043 29.341 48.7552 29.5837 49.357C29.6793 49.5935 29.8773 50.365 30.1086 50.4416C30.2009 50.1536 29.8676 49.6347 29.7481 49.3551L29.8312 49.3392C29.9337 49.3203 29.8298 49.3963 29.9306 49.3146L29.801 48.7882L29.5372 48.7118L29.6548 48.341C29.4718 48.3436 28.3225 48.9763 28.1074 49.1899C27.7974 49.4968 27.8322 49.1382 27.0684 49.6015C26.184 50.1386 25.5328 50.5714 24.5682 51.0026C22.77 51.8068 20.794 52.418 18.9473 53.1504C18.1181 53.4796 14.1193 55.179 13.7085 55.6804C13.3766 56.0864 12.3116 58.2679 13.1877 58.4154C13.786 58.5163 14.5824 57.7271 15.0453 57.3715C15.3912 57.1058 15.1656 56.907 15.5086 56.8306Z" fill="#02282E"/>
<path fill-rule="evenodd" clip-rule="evenodd" d="M39.9835 58.3307C40.0417 58.1916 40.0897 58.2022 40.2382 58.2063C40.2118 58.3896 40.1838 58.3715 39.9835 58.3307ZM40.485 58.1923C40.4518 58.1356 40.4302 58.1776 40.4654 58.0359C40.485 57.9588 40.485 57.9683 40.5281 57.944C40.5655 58.073 40.5882 58.1198 40.485 58.1923ZM43.3627 54.9586C43.3847 54.8399 43.3779 54.8543 43.4803 54.8036C43.4958 54.9359 43.5083 54.9374 43.3627 54.9586ZM43.6111 54.4215C43.6655 54.4956 43.6754 54.431 43.6151 54.5368C43.5214 54.479 43.5206 54.485 43.6111 54.4215ZM44.6626 53.3614C44.6506 53.4679 44.6837 53.4207 44.5847 53.4407C44.6089 53.3391 44.5567 53.3746 44.6626 53.3614ZM44.9211 53.4242C44.9593 53.2714 44.895 53.3622 44.9993 53.3092C45.0594 53.4347 45.0417 53.3976 44.9211 53.4242ZM46.5293 51.2932C46.5319 51.1723 46.5999 51.1182 46.7114 51.0872C46.6887 51.2067 46.6393 51.3182 46.5293 51.2932ZM46.5538 50.1903C46.6562 50.0139 47.117 49.6314 47.3078 49.5626C47.7837 50.2152 47.4715 50.4742 47.4216 50.6756C47.7972 51.0052 47.6574 51.1659 47.2481 51.1179L47.3343 50.7867C47.2017 50.7788 47.1759 50.9142 47.0241 50.9375C46.7977 50.9723 46.8906 50.8412 46.663 50.8192L46.5455 51.0302C46.2821 50.9894 46.3059 50.792 46.3282 50.5512C46.6252 50.6072 46.7633 50.5906 46.8115 50.2508L46.5538 50.1903ZM48.0929 48.2711C48.0173 48.1434 48.038 47.9567 47.9315 47.9022C47.77 48.2046 47.8506 48.7375 47.4201 48.954C47.3189 48.739 47.5981 48.1811 47.2458 48.0311C47.1329 48.5632 47.2351 48.7954 46.8778 49.2964C46.7621 49.4594 46.6401 49.5834 46.5239 49.7486C46.3943 49.9334 46.3607 50.2342 46.2783 50.3446L46.0058 50.3067C46.0262 50.6711 46.2715 51.0112 45.9329 51.2558C45.7578 51.1363 45.6962 50.789 45.3221 50.7414C45.1263 51.2774 45.3557 51.1496 45.5383 51.4191L45.4401 51.8952C45.5443 51.943 45.5341 51.8779 45.6082 51.9319C45.5295 52.1028 45.1025 52.1447 45.0174 52.4255C45.3074 52.4135 45.5583 52.3118 45.7281 52.0899C45.7825 52.1655 45.821 52.2536 45.9257 52.3103C45.7987 52.471 45.5295 52.6795 45.5934 52.9131C45.7945 52.8247 45.6562 52.7287 45.9053 52.6863C45.8653 52.9652 45.8218 53.1595 45.5454 53.2234L45.4517 52.9022L45.1626 53.1372C44.9623 53.0326 44.98 53.0114 44.7362 53.0594C44.8126 52.8995 44.9109 52.9135 44.9646 52.7302C43.7955 52.6519 44.8591 53.9563 44.0559 54.163L44.147 53.7672C43.9313 53.7938 43.187 54.0439 43.0971 54.1876C43.2169 54.3864 43.2249 54.2719 43.3491 54.3826C42.7906 54.9351 42.5305 55.8815 41.6691 55.9742L41.7531 55.7572C40.7995 55.6779 41.8056 56.1246 41.3234 56.4511L41.2319 56.0784C41.0721 56.1582 41.0311 56.5603 40.9473 56.7436C40.8339 56.9916 40.6702 57.0524 40.4541 57.184C40.4846 57.3767 40.603 57.4024 40.4707 57.6534C40.3985 57.7906 40.3059 57.8952 40.163 57.9444C40.1852 57.6375 40.4325 57.4712 40.4333 57.3738C40.3142 57.2687 40.2998 57.3363 40.1535 57.3824C40.1751 57.2271 40.2394 57.1435 40.0983 57.0438C40.0153 57.1412 39.6894 58.2275 39.6362 58.4298C39.5322 58.8231 39.3921 59.691 39.4574 60.0795C39.7118 60.0492 39.8195 59.9454 39.827 59.6819C39.835 59.3826 39.5866 60.0024 39.7454 58.6406C40.1294 58.5472 39.9473 58.6243 40.2273 58.7162C40.4034 58.5884 41.3558 57.2294 41.6137 56.9262C41.9583 56.5214 41.9081 56.8071 42.631 56.3638C42.9659 56.1586 42.8487 55.5082 43.0922 55.2084C43.2939 55.1703 43.3761 55.2912 43.5933 55.134C43.7237 55.0395 43.8076 54.9083 43.9327 54.8026C43.8608 54.6034 43.8522 54.8539 43.825 54.6906C44.3307 54.1071 45.3735 54.1063 45.6313 53.864L45.4634 53.7038C45.5145 53.5806 45.6199 53.4778 45.6939 53.3674C45.8966 53.0643 45.8364 53.2495 46.0647 53.2899C46.0754 53.0995 46.0787 52.8935 46.0687 52.7026C46.0581 52.4811 45.9962 52.3643 45.9785 52.2355C46.441 51.5087 47.5907 51.7286 47.8701 50.8684C48.0046 50.4552 47.9094 49.8796 47.7215 49.495C47.6037 49.2534 47.5141 49.1502 47.7282 48.9231C48.1587 48.4676 48.0446 48.906 48.1073 48.468C48.2154 48.4234 48.2974 48.3498 48.4115 48.3154C48.537 48.2779 48.6913 48.3131 48.7941 48.2518L48.4841 48.0912C48.4838 47.9226 48.5065 47.7964 48.3821 47.6644C48.2131 47.7876 48.1911 48.095 48.0929 48.2711Z" fill="#02282E"/>
<path fill-rule="evenodd" clip-rule="evenodd" d="M26.6449 64.5779C26.6651 64.4218 26.7281 64.3348 26.8577 64.2646C26.8109 64.3968 26.7704 64.5136 26.6449 64.5779ZM30.2101 58.6992C30.2653 58.5802 30.2154 58.6436 30.339 58.6134C30.305 58.7003 30.3016 58.7615 30.2101 58.6992ZM35.5525 55.1868C35.3008 55.5115 34.9958 55.5206 34.65 55.5086L34.5649 55.6722L33.9727 55.5078C33.8332 55.5951 33.7139 55.7768 33.5608 55.8691C33.2916 56.0323 33.2021 55.8687 32.9737 55.8143C32.8313 55.9946 33.0248 55.953 32.7153 56.0506L32.8415 56.806C32.6703 56.9074 31.9537 57.2003 31.7813 57.2248C31.3123 57.2924 31.0844 57.2966 30.7171 57.6352C30.2968 58.0227 29.9426 59.2219 29.3106 59.1766C29.254 58.9007 29.3922 58.7283 29.359 58.6659L28.944 58.7518C28.9751 58.8946 29.0676 58.9188 29.0919 59.0956C29.1183 59.2895 29.0291 59.3455 29.0124 59.5054L29.2903 59.6716C29.2721 59.9192 29.0945 60.1184 28.9565 60.2791C29.0404 60.3774 29.2684 60.3543 29.0064 60.631C28.9164 60.7262 28.7724 60.897 28.6337 60.8784L28.4992 60.6335C28.3873 60.6722 28.2475 60.8842 28.1587 60.9763C28.0513 61.0879 27.8272 61.2103 27.7755 61.2826C27.6571 61.809 27.9395 61.7818 27.4599 62.213C27.5248 62.3578 27.5637 62.2535 27.6337 62.4387C27.574 62.5562 27.4187 62.647 27.3729 62.7319C27.3068 62.8536 27.5203 63.2891 26.9753 63.9508C26.8933 64.0506 26.778 64.1342 26.7065 64.2294C26.6027 64.3678 26.594 64.4059 26.4636 64.5355C26.1101 64.8867 25.914 64.8791 25.7821 64.9854L26.0916 65.1591C26.0304 65.2986 25.9941 65.2495 25.8551 65.333L26.0769 65.5202C26.0876 66.0231 25.0265 66.2575 24.7053 66.499C24.8456 66.6011 25.3327 66.5168 25.6355 66.5538L25.4719 66.7859L25.7867 66.9514C26.0387 66.0602 26.1771 65.6966 26.6185 64.8832C26.9519 64.2695 27.3344 63.6368 27.71 63.0415C28.1454 62.3522 29.0276 61.0255 29.3651 60.3131C29.5239 59.9778 29.5828 59.4434 29.7313 59.1988L30.1693 59.1452C30.3331 58.9055 30.5579 58.3874 30.8493 57.9614C30.9781 57.7728 30.9653 57.681 31.1835 57.6546C31.8147 57.579 32.6729 57.5132 32.9057 56.8287C33.2683 55.7636 36.0809 55.6435 36.48 55.3467C36.4196 55.2492 36.2643 55.2715 36.1003 55.0652L35.8368 55.1328C35.7507 54.9968 35.5873 54.8883 35.4347 54.9038L35.5525 55.1868Z" fill="#02282E"/>
<path fill-rule="evenodd" clip-rule="evenodd" d="M32.414 55.151C32.5399 55.1895 32.4756 55.0984 32.5036 55.2466C32.3774 55.2054 32.4556 55.295 32.414 55.151ZM35.519 52.8583C35.5019 52.59 35.5647 52.5091 35.8379 52.5408C35.7812 52.7431 35.7087 52.7763 35.519 52.8583ZM36.1986 52.5128C36.07 52.4875 35.9936 52.4792 35.9502 52.3568C36.087 52.3152 36.1048 52.3321 36.2246 52.3855L36.1986 52.5128ZM35.582 52.3458C35.6024 52.1694 35.7166 52.1119 35.7892 52.2845C35.706 52.3457 35.7046 52.3307 35.582 52.3458ZM37.866 52.1213L37.6434 52.0283L37.6975 51.8336C37.4363 51.7755 37.3755 52.1092 36.7779 51.7442C36.6539 51.806 36.623 51.9014 36.4658 51.9418C36.2147 52.0056 36.2359 51.8814 36.1094 51.8262C35.8882 51.7298 35.7491 52.0725 35.4887 51.4836L35.0031 51.8589L35.0582 52.2384L34.6879 52.3677C34.7763 52.5616 34.8303 52.5276 34.8616 52.768L34.5555 53.048C34.5328 53.2181 34.5367 53.335 34.6599 53.4627C34.9724 53.3708 34.847 53.2797 35.0068 53.0892C35.1716 53.1724 35.1886 53.5111 35.1304 53.6996C34.9679 54.2265 34.2308 54.5961 33.6768 54.6687C33.7456 54.5265 33.8518 54.5216 33.9104 54.3346C33.6107 54.3399 33.4078 54.4646 33.0996 54.3187C32.8798 54.2144 32.6651 54.0496 32.4004 54.0855C32.4303 54.1879 32.5082 54.256 32.518 54.3248C32.5392 54.4714 32.4546 54.4241 32.4016 54.5667C32.5747 54.654 32.7006 54.6102 32.7795 54.8086C32.5411 54.9215 32.5343 54.8073 32.34 54.8403L32.264 55.5341L32.1586 55.193C32.0652 55.3036 32.0751 56.2009 32.0992 56.3763C32.3907 56.3528 32.3067 56.0924 32.3623 55.8332C32.6019 55.7129 32.6363 55.7758 32.7403 55.4676C32.8116 55.255 32.8499 55.1105 32.9515 54.906C33.785 55.1044 34.3307 55.0444 34.9234 54.4279C35.2378 54.101 35.4947 53.5696 35.6708 53.1436C35.7616 52.9244 35.726 52.8356 35.9355 52.7423C35.9408 52.7487 35.9448 52.7524 35.9462 52.7642L35.9806 52.9856L36.5905 53.1282C36.6012 52.8488 36.4787 52.7373 36.3971 52.5155C37.4119 52.1628 37.1134 52.4928 37.9059 52.539C38.3799 51.1126 38.4584 51.5771 38.7124 51.7116L39.07 51.5226C38.9763 51.2554 38.9279 51.4508 38.8999 51.0633L38.6943 51.0774C38.6903 51.0714 38.6766 51.0419 38.672 51.0335C38.6312 50.9549 38.7003 51.0151 38.6107 50.9315L38.2166 51.1919C38.0759 50.7018 38.4225 50.3203 38.1885 49.9072C37.6232 49.9408 38.0199 51.5876 37.866 52.1213Z" fill="#02282E"/>
<path fill-rule="evenodd" clip-rule="evenodd" d="M20.0155 59.4785C20.1008 59.3648 20.5876 59.166 20.7472 59.1085C20.9872 59.022 21.4656 59.0813 21.4883 59.3323C21.3119 59.4301 21.279 59.3533 21.1191 59.2725C20.9214 59.1724 20.9308 59.2083 20.7592 59.3137C20.5472 59.4441 20.2555 59.5987 20.0155 59.4785ZM23.7576 58.6807C23.8687 58.7003 23.8328 58.6939 23.871 58.8201L23.728 58.8243C23.7187 58.7044 23.6979 58.7573 23.7576 58.6807ZM26.8983 56.7841C26.9902 56.7663 27.0518 56.8279 27.1047 56.9349L26.937 57.0267C26.8779 56.8944 26.8398 56.9311 26.8983 56.7841ZM27.0394 56.6605C27.1478 56.5815 27.3311 56.4964 27.271 56.346C27.1342 56.1907 26.8874 56.532 26.768 56.6517C26.6346 56.7852 26.5462 57.0903 26.5427 57.2724L26.6784 57.2683C26.5911 58.2487 25.2086 58.0513 24.9342 58.1836C25.0396 58.3231 25.0766 58.2188 25.1383 58.3484C24.9531 58.4168 24.7834 58.446 24.5815 58.5272C24.3495 58.6205 24.2202 58.6867 23.9587 58.624L24.1631 58.4096L23.6911 58.2705C23.623 58.6609 23.5762 58.6376 23.476 58.9411L22.8255 58.8961C22.8819 59.0276 22.9828 59.0053 23.1135 59.0499C22.9722 59.158 22.652 59.1376 22.4662 59.1263C22.5066 58.8953 22.8422 58.8659 22.578 58.2973C22.4627 58.0503 22.287 57.7849 22.0095 57.7263L22.0303 58.0907L22.1982 58.0631C22.3047 58.5295 22.2968 58.678 22.2674 59.1497C21.7015 59.3477 21.2642 58.924 20.746 58.7476L20.8092 57.9826C20.5155 58.0468 20.5695 58.3843 20.5934 58.6084C20.4531 58.7215 20.3571 58.774 20.223 58.9071C20.107 59.022 20.0151 59.1841 19.8866 59.2781L19.6655 59.0651C19.497 59.1248 19.5271 59.1939 19.435 59.2971L19.2142 59.1535L19.0951 59.4244C18.6538 59.2835 18.7966 59.0847 18.6027 58.9652L18.5176 59.2843C18.2879 59.1452 18.3359 58.7808 18.1779 58.5983C18.0161 58.7003 18.0819 58.9728 17.888 58.9936C17.637 58.8337 17.9696 58.6349 18.0172 58.3976C17.5508 58.438 17.8536 58.7631 17.5776 59.116C17.6695 59.1792 17.9095 59.2019 18.0883 59.3043C18.693 59.6524 18.894 59.8269 19.7592 59.7692C20.7502 59.7023 23.5478 59.11 24.5203 58.7876C24.8979 58.6625 26.407 58.0472 26.6236 58.0219L26.7456 58.226L26.9426 58.012L27.6592 58.1735C27.5919 57.8521 27.2755 57.8117 26.9963 57.7524C27.019 57.5903 27.0598 57.4387 27.1092 57.2837C27.1776 57.0709 27.15 57.052 27.3599 56.9852C27.8618 56.8245 27.9038 56.984 28.3259 56.984L27.9774 56.4189C28.067 56.2591 28.3074 56.0773 28.327 55.9523C28.3591 55.7401 28.1298 55.5432 27.966 55.9156C27.7594 56.3849 27.6164 56.6261 27.0394 56.6605Z" fill="#02282E"/>
<path fill-rule="evenodd" clip-rule="evenodd" d="M24.2638 65.0972C24.2732 65.2151 24.3084 65.1444 24.2014 65.1799C24.2108 65.0791 24.1758 65.1236 24.2638 65.0972ZM25.2356 60.9514L24.957 60.7126C24.5261 61.1203 23.8654 63.6851 23.7381 64.3538C23.5416 65.3848 23.3302 67.5978 24.4634 68.1738C24.7706 68.0232 24.8841 67.8106 25.6536 67.6367C25.6469 67.8306 25.5878 67.7496 25.4812 67.8982L25.6494 68.0172C25.4857 68.3192 25.353 68.08 25.2049 67.9878C25.1668 68.004 24.875 68.1314 24.8637 68.145L25.0696 68.3366C24.9113 68.572 24.8549 68.4118 24.6758 68.563C24.7261 68.5978 24.6769 68.5766 24.7578 68.5936L25.0057 68.5868C25.2741 68.5475 25.513 68.4416 25.6532 68.2055C25.855 67.8664 25.8742 67.4268 25.8614 67.0383C25.7269 67.0811 25.4086 67.4836 25.2185 67.6098C24.9925 67.7603 24.517 67.9194 24.3432 67.6616C24.4618 67.4148 24.6146 67.5848 24.8122 67.4035C24.7242 67.267 23.9418 66.9888 23.9105 66.2427C23.879 65.4808 24.5825 65.2094 24.745 65.056C24.5446 64.7007 24.2056 64.9306 24.1996 63.9822C24.3689 63.9939 24.8149 64.0915 24.9354 64.014C24.7654 63.7407 24.0776 63.3643 24.2173 62.9012C24.3798 62.6548 24.703 62.738 24.9373 62.6563C24.8137 62.4016 24.6516 62.4734 24.5918 62.024L24.8674 61.8475C24.8688 61.625 24.7366 61.5951 24.9472 61.3354C25.2912 61.4196 24.9956 61.6915 25.4566 61.7224C25.4606 61.5047 25.3202 61.4404 25.1917 61.3108L25.2356 60.9514Z" fill="#02282E"/>
<path fill-rule="evenodd" clip-rule="evenodd" d="M29.6296 48.1906C29.6724 48.3134 29.7476 48.4608 29.847 48.5251C30.0466 48.3463 29.8776 48.1577 30.2359 47.9959C30.4015 48.0564 30.2124 48.0413 30.4798 48.1075C30.6498 48.1493 30.6143 48.2004 30.7398 48.2128L30.7814 47.932C30.4359 47.7643 30.6312 47.3723 30.8947 47.3129C30.9858 47.5303 31.1524 48.0614 31.4087 48.076C31.4514 47.7934 31.3244 47.5738 31.6038 47.3035C31.8034 47.1104 32.1128 47.0929 32.3514 47.2336C32.8234 47.5125 32.9194 48.2585 33.2698 48.4128C33.2791 48.0103 32.8866 47.4755 32.6742 47.1368C32.5366 46.9168 32.391 46.7143 32.4783 46.4388C32.5331 46.2649 32.7558 45.9545 32.9406 45.9735L32.9727 46.1546C33.0014 46.2434 32.962 46.1741 33.0086 46.2369C33.2323 46.0019 33.0955 45.9156 33.4152 46.2013C33.7388 46.4905 33.5336 46.4479 33.5324 46.7302C33.6919 46.8138 33.752 46.8315 33.8942 46.9487C34.032 47.062 34.068 47.1875 34.2374 47.1992L34.2222 46.7691C34.4142 46.7271 34.5034 46.689 34.5748 46.4902C34.4074 46.471 34.2362 46.6141 34.0703 46.6564C33.879 46.4096 33.1126 45.1666 33.2263 44.9304C33.4655 44.8064 33.7762 45.1428 34.0139 45.1915C33.9807 44.9304 33.565 44.5751 33.3608 44.442C33.2022 44.5316 32.6431 45.2539 32.4855 45.4459C32.2088 45.7827 31.8759 46.0952 31.5682 46.398L29.6296 48.1906Z" fill="#02282E"/>
<path fill-rule="evenodd" clip-rule="evenodd" d="M32.6436 51.4115L32.8889 51.5363C32.9406 52.0892 32.8636 52.3552 32.2656 52.2926L32.1035 52.5381C31.9916 52.4327 32.1154 52.466 31.9712 52.4184L31.7168 52.5657L31.856 52.1146C31.6854 52.1414 31.5819 52.2524 31.4409 52.3338C31.2588 52.4391 31.1976 52.3272 31.0097 52.2505L31.1175 51.8651C30.9073 51.91 31.041 51.9875 30.8365 52.0309L30.9998 51.6643C30.8698 51.675 30.7697 51.7131 30.6525 51.7145C30.5213 51.7168 30.4348 51.6768 30.3003 51.6742C30.3143 52.2407 30.7448 52.2324 30.8449 52.768L30.287 53.0171C30.2508 52.8919 30.2296 52.7854 30.1377 52.7351C29.8126 53.1024 30.2376 53.4668 29.7576 53.9944C29.6079 53.9985 29.2609 53.9112 29.1134 53.8562C28.8342 53.7518 28.8485 53.6486 28.6868 53.4714C28.4827 53.4699 28.2476 53.5111 28.0092 53.5111C27.8568 53.5113 27.5084 53.5126 27.4785 53.694C27.664 53.7771 28.1097 53.7072 28.4317 53.8617C28.6003 53.9431 28.9828 54.1899 29.1074 54.3153C29.1048 54.9223 28.3565 55.2257 28.2072 55.4113L28.4641 55.696C28.607 55.6445 28.5828 55.5482 28.7722 55.5784C28.8897 55.5966 28.9756 55.6789 29.1252 55.6884C29.1225 55.4087 28.743 55.2972 29.2344 54.8217C29.3882 54.9091 29.5092 55.1831 29.7096 55.1804C29.6464 54.9616 29.4443 54.7659 29.5043 54.5531L29.8452 54.4136C29.9638 54.242 29.9624 53.6974 30.3637 53.6135L30.4337 53.8898C31.0606 53.9291 30.7912 53.7231 31.0074 53.6777C31.0981 53.7865 30.8933 53.9464 31.5033 54.0307C31.4586 53.8277 31.2852 53.6667 31.1702 53.5076C31.0062 53.2812 31.2452 53.0676 31.2182 52.8477C30.9836 52.8741 31.0112 53.0114 30.874 53.1308C30.8633 52.8984 30.9916 52.6996 31.1041 52.5643C31.8173 52.7029 32.4697 53.0768 32.7222 52.6772C32.8442 52.4845 33.2392 51.3563 33.2639 51.1216L32.8783 51.1008L32.6436 51.4115Z" fill="#02282E"/>
<path fill-rule="evenodd" clip-rule="evenodd" d="M36.9824 44.9949C36.5273 45.0419 36.0968 45.3582 36.07 45.8359L35.8179 45.9153L36.4555 46.243C36.6718 46.0454 36.6917 45.8095 37.0829 46.0472C37.2836 46.1686 37.6956 46.3315 37.7704 45.9984C37.6437 45.9576 37.5199 45.9978 37.4045 45.9018C37.5115 45.7298 37.5871 45.7736 37.784 45.7467L37.7092 45.1927L37.488 45.1873C37.4439 45.0839 37.3947 44.9395 37.2904 44.8794C37.1033 45.1379 36.8708 45.8167 36.3123 45.8284C36.1732 45.8311 36.1671 45.7229 36.2235 45.6465C36.316 45.5211 36.9124 45.4905 36.9824 44.9949Z" fill="#02282E"/>
<path fill-rule="evenodd" clip-rule="evenodd" d="M20.7107 57.2621C20.8169 57.2135 20.889 57.0683 21.0346 57.1473C20.9526 57.2345 20.8295 57.2751 20.7107 57.2621ZM18.5073 58.2747C18.8296 58.3367 18.858 58.2203 19.0436 58.2176L19.1427 58.5923C19.3059 58.5382 19.2469 58.0812 19.2148 57.9308C19.3172 57.7512 19.572 57.5903 19.7896 57.5173L19.8819 57.6628C20.0277 57.6235 20.0955 57.5192 20.2761 57.5087C20.5116 57.4951 20.5131 57.608 20.6725 57.6673C21.3109 56.7395 22.7891 57.1756 23.1519 56.9587C23.0847 56.9001 21.916 56.7819 21.7588 56.8C21.3487 56.8464 20.8616 56.9648 20.4722 57.094C20.0893 57.2209 19.722 57.3801 19.3648 57.5645C19.2904 57.6031 18.5099 58.2668 18.5073 58.2747Z" fill="#02282E"/>
<path fill-rule="evenodd" clip-rule="evenodd" d="M27.0764 54.8626C26.7301 54.7764 25.537 55.3786 25.4304 55.6048C25.9498 56.0044 28.2888 54.6959 28.4336 53.9786C28.206 54.0251 27.1731 54.6722 27.0764 54.8626Z" fill="#02282E"/>
<path fill-rule="evenodd" clip-rule="evenodd" d="M33.2132 49.914C33.0072 49.9299 32.8618 49.6586 32.6671 49.6242C32.6433 49.8022 32.8299 50.5252 32.9691 50.6171C33.1029 50.67 33.2744 50.5782 33.4248 50.5698C33.6358 50.558 33.7454 50.6136 33.9328 50.6311C33.9395 50.4451 33.7571 50.4047 33.8921 50.2059C33.9774 50.0796 34.098 50.0158 34.1347 49.8347C34.008 49.7352 33.8939 49.7191 33.765 49.5912C33.6671 49.4946 33.5678 49.3403 33.4899 49.2696C33.2639 49.4178 33.2454 49.6658 33.2132 49.914Z" fill="#02282E"/>
<path fill-rule="evenodd" clip-rule="evenodd" d="M36.1665 48.7624L35.9393 48.9147C35.9053 49.1748 35.9752 49.2103 36.0796 49.4155C35.9193 49.5887 35.477 49.8672 35.2866 49.8895C35.1142 49.9095 35.1902 49.8358 34.9422 49.9254L34.8595 49.7395C34.6192 49.8566 34.4548 49.9814 34.4596 50.2482C35.66 50.3786 36.2485 50.3332 36.1853 48.767L36.4945 48.6226C36.4366 48.5126 36.3989 48.5236 36.3781 48.434C36.341 48.276 36.5963 48.0746 35.8687 48.027C35.8505 48.5148 36.0784 48.4124 36.1665 48.7624Z" fill="#02282E"/>
<path fill-rule="evenodd" clip-rule="evenodd" d="M23.1494 56.7974C23.3818 56.8688 23.6459 56.7735 23.8822 56.7535C24.363 56.7127 24.3002 56.8786 24.5622 56.9274C24.7065 56.2591 25.2886 56.2436 25.3675 55.6899C25.0769 55.721 23.2174 56.585 23.1494 56.7974Z" fill="#02282E"/>
<path fill-rule="evenodd" clip-rule="evenodd" d="M50.1531 35.102C50.3923 35.2011 50.5563 34.726 50.8288 34.5934C50.9252 35.0208 50.6402 35.1815 50.6168 35.4796C50.7464 35.4633 50.9646 35.2454 51.0495 35.1296C51.1962 35.1947 51.1626 35.2437 51.3577 35.2781L51.463 34.6772C51.367 34.6055 51.3523 34.5979 51.2903 34.5167C51.2664 34.4852 51.2472 34.4547 51.2159 34.4294C51.1698 34.3919 51.2026 34.4174 51.1546 34.3919L51.1092 34.37C51.1039 34.3673 51.0926 34.3647 51.0855 34.3593C51.1309 34.2687 51.0935 34.2366 51.0749 34.1198C50.6538 34.2426 50.0885 34.8538 50.1531 35.102Z" fill="#02282E"/>
<path fill-rule="evenodd" clip-rule="evenodd" d="M25.0381 60.2719C25.0813 60.3226 25.172 60.3871 25.2377 60.4382C25.4845 60.2174 25.3401 60.0103 25.9762 60.016C25.9569 59.844 25.7581 59.7031 25.6969 59.5311L25.9025 59.2442C26.1112 59.2295 26.2881 59.3674 26.4002 59.3084L26.1497 58.768L25.0381 60.2719Z" fill="#02282E"/>
<path fill-rule="evenodd" clip-rule="evenodd" d="M51.2381 33.3196C51.1901 33.4591 51.2641 33.3801 51.1425 33.424C51.1837 33.2675 51.1001 33.3756 51.2381 33.3196ZM51.0616 33.6877C51.2457 33.6811 51.3519 33.5835 51.4493 33.4609L51.5904 33.5993C51.6225 33.2969 51.4623 32.3888 51.1323 32.3396C51.0363 33.0691 51.1043 32.7176 51.1403 32.984C51.1644 33.1678 51.0223 33.354 51.0616 33.6877Z" fill="#02282E"/>
<path fill-rule="evenodd" clip-rule="evenodd" d="M26.1714 64.0858C26.7146 64.0378 27.0854 63.1851 27.1359 62.885C26.8415 62.9418 26.1945 63.9558 26.1714 64.0858Z" fill="#02282E"/>
<path fill-rule="evenodd" clip-rule="evenodd" d="M36.6165 48.2227C36.6298 48.4944 36.6627 48.2503 36.6013 48.5852C36.9276 48.6025 36.8407 48.6446 37.0677 48.6982C37.1751 48.6075 37.4775 48.3618 37.3807 48.2227C37.3104 48.191 37.092 48.3203 37.0043 48.3523L37.0424 48.03C36.9023 48.0583 36.9577 48.0636 36.852 48.1351C36.7352 48.2136 36.7298 48.1724 36.6165 48.2227Z" fill="#02282E"/>
<path fill-rule="evenodd" clip-rule="evenodd" d="M31.2013 56.3075C31.3019 56.2338 31.4848 55.928 31.4803 55.809L31.1696 55.865C31.0415 55.6888 31.0297 55.4654 30.8029 55.3778C30.7444 55.6324 30.6488 55.7278 30.8457 55.8951C30.9922 56.0195 31.0513 56.1786 31.2013 56.3075Z" fill="#02282E"/>
<path fill-rule="evenodd" clip-rule="evenodd" d="M40.1125 42.9313C40.2604 43.1219 40.689 43.3763 40.9316 43.3849C40.8946 43.1456 40.4905 42.6905 40.2592 42.6479L40.1125 42.9313Z" fill="#02282E"/>
<path fill-rule="evenodd" clip-rule="evenodd" d="M41.3027 42.8278C41.5798 42.9744 41.6891 42.8139 41.8441 42.6166L41.8547 42.6586C41.8729 42.8116 41.8329 42.7371 41.8714 42.8263C41.9757 42.7983 42.2029 42.5999 42.2478 42.4952C41.9114 42.3988 42.2085 42.6086 41.7103 42.3391C41.5842 42.426 41.3379 42.665 41.3027 42.8278Z" fill="#02282E"/>
<path fill-rule="evenodd" clip-rule="evenodd" d="M28.3137 56.7591C28.4295 56.8722 28.5379 56.8676 28.6071 56.9266L28.5106 57.1484C28.6237 57.2479 28.7635 57.3291 28.9 57.3635C28.892 57.0786 28.8118 56.704 28.6206 56.4867C28.5242 56.532 28.3712 56.6746 28.3137 56.7591Z" fill="#02282E"/>
<path fill-rule="evenodd" clip-rule="evenodd" d="M29.3325 55.934C29.3339 56.1427 29.7091 56.5555 29.9112 56.6122C30.0307 56.3382 29.7824 55.7553 29.3325 55.934Z" fill="#02282E"/>
<path fill-rule="evenodd" clip-rule="evenodd" d="M34.499 48.6332C34.6756 48.6623 34.9417 48.6003 35.1234 48.5671C35.3887 48.5187 35.4493 48.437 35.4235 48.1607C35.2367 48.1899 34.5584 48.4578 34.499 48.6332Z" fill="#02282E"/>
<path fill-rule="evenodd" clip-rule="evenodd" d="M41.7385 55.5024L41.7956 55.8007C42.144 55.7614 42.4449 55.6771 42.4048 55.2643C42.2219 55.275 41.9339 55.4431 41.7385 55.5024Z" fill="#02282E"/>
<path fill-rule="evenodd" clip-rule="evenodd" d="M26.7214 61.9043C26.7721 62.0162 27.2082 62.4504 27.3242 62.4916C27.4229 62.3211 27.407 62.1295 27.2468 62.0094L26.8677 61.8728C26.7146 61.8592 26.7902 61.8528 26.7214 61.9043Z" fill="#02282E"/>
<path fill-rule="evenodd" clip-rule="evenodd" d="M35.0376 48.6724C35.0685 48.7999 35.1351 48.7662 35.4435 48.8815C35.6068 48.9427 35.7432 48.9042 35.8709 48.8028C35.8192 48.5898 35.7323 48.5814 35.5205 48.5968C35.3732 48.6079 35.1751 48.6328 35.0376 48.6724Z" fill="#02282E"/>
<path fill-rule="evenodd" clip-rule="evenodd" d="M34.3901 45.4179C34.5428 45.5143 34.866 45.6216 35.0401 45.5536C35.0757 45.4444 34.9876 45.3979 34.878 45.3536L34.9348 45.1431C34.7333 45.1182 34.4612 45.2388 34.3901 45.4179Z" fill="#02282E"/>
<path fill-rule="evenodd" clip-rule="evenodd" d="M38.8938 60.0224C39.2613 59.9524 39.5145 59.2756 39.3387 59.0454C39.3142 59.0563 38.9078 59.9242 38.8938 60.0224Z" fill="#02282E"/>
<path fill-rule="evenodd" clip-rule="evenodd" d="M39.1259 52.1527C39.1712 52.1799 39.1285 52.1727 39.2007 52.1799C39.246 52.1848 39.2343 52.184 39.2797 52.1764C39.3115 52.1704 39.3708 52.1428 39.4143 52.1311C39.4853 52.2645 39.4925 52.3465 39.6267 52.3987C39.6085 52.1424 39.5408 51.904 39.2921 51.8076C39.1716 51.9063 39.0719 51.9761 39.1259 52.1527Z" fill="#02282E"/>
<path fill-rule="evenodd" clip-rule="evenodd" d="M43.1016 48.4623C43.137 48.1691 42.93 47.8648 42.668 47.7738C42.6733 48.019 42.868 48.3939 43.1016 48.4623Z" fill="#02282E"/>
<path fill-rule="evenodd" clip-rule="evenodd" d="M45.6533 44.4731C45.8128 44.574 46.1261 44.6968 46.3121 44.676C46.2732 44.5396 45.9795 44.317 45.8363 44.2626C45.7615 44.3203 45.6851 44.3846 45.6533 44.4731Z" fill="#02282E"/>
<path fill-rule="evenodd" clip-rule="evenodd" d="M44.4508 49.2601C44.588 49.2624 44.6455 49.236 44.7672 49.1891C44.7446 49.0576 44.5684 48.6229 44.4584 48.5855L44.4508 49.2601Z" fill="#02282E"/>
<path fill-rule="evenodd" clip-rule="evenodd" d="M43.6074 49.1438C43.7088 49.0836 43.7586 48.934 43.7772 48.8259C43.6385 48.7696 43.4809 48.581 43.3398 48.5954L43.6074 49.1438Z" fill="#02282E"/>
<path fill-rule="evenodd" clip-rule="evenodd" d="M28.4289 52.9804C28.5155 52.8863 28.5695 52.7275 28.5899 52.5994L28.2815 52.4747C28.2646 52.6527 28.2761 52.8848 28.4289 52.9804Z" fill="#02282E"/>
<path fill-rule="evenodd" clip-rule="evenodd" d="M31.9893 48.6506C31.9497 48.3426 31.8438 48.1992 31.5381 48.146C31.5849 48.3562 31.7882 48.5962 31.9893 48.6506Z" fill="#02282E"/>
<path fill-rule="evenodd" clip-rule="evenodd" d="M41.1142 42.7167C41.2733 42.6646 41.4082 42.4666 41.4465 42.2927C41.1146 42.2639 41.0227 42.4174 41.1142 42.7167Z" fill="#02282E"/>
<path fill-rule="evenodd" clip-rule="evenodd" d="M39.0411 37.4106C39.1942 37.3052 39.2989 37.0655 39.1318 36.9095C38.9554 36.9798 38.8759 37.2715 39.0411 37.4106Z" fill="#02282E"/>
<path fill-rule="evenodd" clip-rule="evenodd" d="M37.719 50.7444L37.6639 50.1876C37.4802 50.2745 37.3895 50.6775 37.719 50.7444Z" fill="#02282E"/>
<path fill-rule="evenodd" clip-rule="evenodd" d="M32.8215 46.7052C33.0805 46.7952 33.1583 46.655 33.1481 46.4162C33.0279 46.4592 32.8605 46.579 32.8215 46.7052Z" fill="#02282E"/>
<path fill-rule="evenodd" clip-rule="evenodd" d="M51.9365 33.6945C51.9612 33.5377 51.989 33.4308 51.9285 33.2724C51.7466 33.3272 51.6934 33.6469 51.9365 33.6945Z" fill="#02282E"/>
<path fill-rule="evenodd" clip-rule="evenodd" d="M41.6241 54.5923C41.7503 54.6407 41.7897 54.6524 41.9261 54.6287C41.8857 54.533 41.6799 54.3731 41.5821 54.3422C41.5379 54.4442 41.5643 54.4802 41.6241 54.5923Z" fill="#02282E"/>
</svg>
