<svg xmlns="http://www.w3.org/2000/svg" width="99" height="136" fill="none" viewBox="0 0 99 136">
  <path fill="#00B1FF" fill-rule="evenodd" d="M48.463 45.548c.372.77.542 1.346 1.518 1.067.976-.282 1.51-.42 1.48-1.08a3.096 3.096 0 0 0-.126-.634c-.07-.254-.102-.18-.265-.026-.733.686-1.67.688-2.607.673Z" clip-rule="evenodd"/>
  <path fill="#00E6E6" fill-rule="evenodd" d="M56.286 43.5c.332.984 2.237 6.561 1.956 7.63-.092.35-.8 1.055-1.318 1.544l3.855 3.947c.572-.5 2.98-5.598 1.585-9.56-.11-.314-2.463-6.348-2.488-6.907-.063-1.423 1.244-2.335.68-4.39-.81-2.95 1.725-1.296.599-5.057-.978-3.254-5.642 1.718-6.375 5.75-.429 2.353.556 4.239 1.506 7.043Z" clip-rule="evenodd"/>
  <path fill="#00B1FF" d="M23.364 96.687c1.076 1.086 1.614 2.686 1.614 4.801v7.977c0 .408-.33.738-.737.738h-.554a.738.738 0 0 1-.737-.738v-7.777c0-1.562-.377-2.753-1.13-3.572-.752-.819-1.814-1.229-3.185-1.229-1.562 0-2.791.481-3.686 1.443-.896.963-1.344 2.291-1.344 3.987v7.148c0 .408-.33.738-.737.738h-.554a.738.738 0 0 1-.738-.738v-7.777c0-1.562-.376-2.753-1.128-3.572-.753-.819-1.824-1.229-3.215-1.229-1.543 0-2.767.481-3.672 1.443-.905.963-1.357 2.291-1.357 3.987v7.148c0 .408-.33.738-.738.738H.913a.738.738 0 0 1-.738-.738V95.91c0-.407.33-.737.738-.737h.468c.407 0 .737.33.737.737 0 .63.732.965 1.216.562a5.666 5.666 0 0 1 1.013-.67c.952-.496 2.048-.744 3.286-.744 1.258 0 2.348.267 3.272.8a4.749 4.749 0 0 1 1.53 1.401.746.746 0 0 0 1.175.052 5.993 5.993 0 0 1 1.753-1.41c1.038-.561 2.224-.843 3.558-.843 1.886 0 3.366.543 4.443 1.63Zm16.201 11.13a5.083 5.083 0 0 0 1.987-2.072c.475-.895.714-1.914.714-3.057s-.239-2.162-.714-3.058a5.083 5.083 0 0 0-1.987-2.071c-.847-.486-1.805-.729-2.871-.729-1.067 0-2.025.243-2.872.729a5.175 5.175 0 0 0-2 2.072c-.486.895-.729 1.914-.729 3.057s.243 2.162.729 3.057a5.175 5.175 0 0 0 2 2.072c.847.486 1.805.729 2.872.729 1.066 0 2.024-.243 2.871-.729Zm-6.786 1.543a7.182 7.182 0 0 1-2.743-2.729c-.667-1.161-1-2.476-1-3.943s.333-2.781 1-3.943a7.09 7.09 0 0 1 2.743-2.715c1.162-.647 2.467-.972 3.915-.972 1.447 0 2.752.325 3.915.972a6.992 6.992 0 0 1 2.728 2.715c.658 1.162.986 2.476.986 3.943s-.328 2.782-.986 3.943a7.082 7.082 0 0 1-2.728 2.729c-1.163.657-2.468.986-3.915.986-1.448 0-2.753-.329-3.915-.986Zm24.703-1.543a5.08 5.08 0 0 0 1.986-2.072c.476-.895.714-1.914.714-3.057s-.238-2.162-.714-3.058a5.08 5.08 0 0 0-1.986-2.071c-.848-.486-1.805-.729-2.872-.729s-2.024.243-2.871.729a5.159 5.159 0 0 0-2 2.072c-.487.895-.73 1.914-.73 3.057s.243 2.162.73 3.057a5.172 5.172 0 0 0 2 2.072c.847.486 1.804.729 2.871.729s2.024-.243 2.872-.729Zm-6.786 1.543a7.179 7.179 0 0 1-2.744-2.729c-.667-1.161-1-2.476-1-3.943s.333-2.781 1-3.943a7.087 7.087 0 0 1 2.744-2.715c1.161-.647 2.466-.972 3.914-.972s2.753.325 3.915.972a6.991 6.991 0 0 1 2.729 2.715c.657 1.162.986 2.476.986 3.943s-.329 2.782-.986 3.943a7.081 7.081 0 0 1-2.729 2.729c-1.162.657-2.467.986-3.915.986s-2.753-.329-3.914-.986Zm27.846-12.659c1.114 1.096 1.672 2.691 1.672 4.787v7.959a.756.756 0 0 1-.756.756h-.517a.755.755 0 0 1-.756-.756v-7.759c0-1.562-.391-2.753-1.172-3.572-.781-.819-1.896-1.229-3.343-1.229-1.62 0-2.9.482-3.844 1.443-.942.963-1.414 2.291-1.414 3.987v7.13a.756.756 0 0 1-.756.756h-.517a.756.756 0 0 1-.756-.756V95.928c0-.417.338-.755.756-.755h.431c.418 0 .756.338.756.755 0 .641.744.988 1.239.581a5.95 5.95 0 0 1 1.061-.693c.982-.505 2.12-.758 3.415-.758 1.886 0 3.386.548 4.5 1.643Z"/>
  <path fill="#00E6E6" d="M4.247 120.558c.848-.462 3.326-.709 5.104-.374.33.062.566.351.566.685v.827a.481.481 0 0 1-.58.471l-1.342-.283a5.036 5.036 0 0 0-2.531.099 4.306 4.306 0 0 0-1.917 1.204c-.895.972-1.343 2.334-1.343 4.087v7.068a.59.59 0 0 1-.589.59h-.85a.59.59 0 0 1-.59-.59v-13.877c0-.311.253-.564.564-.564h.815c.312 0 .564.253.564.564v2.379c.477-1.009 1.186-1.771 2.13-2.286Zm16.564 12.13c.786-.502 1.379-1.22 1.78-2.152a.628.628 0 0 0 .049-.248v-1.69a.639.639 0 0 0-.639-.639h-4.076c-2.572 0-3.858.896-3.858 2.686 0 .877.334 1.568 1 2.072.667.505 1.6.757 2.801.757 1.143 0 2.124-.261 2.943-.786Zm2.286-11.43c1.048.982 1.572 2.434 1.572 4.358v8.677a.639.639 0 0 1-.639.639h-.666a.639.639 0 0 1-.639-.639.638.638 0 0 0-1.04-.495 5.183 5.183 0 0 1-.974.619c-.886.439-1.939.658-3.157.658-1.677 0-3.01-.401-4.001-1.2-.99-.801-1.486-1.858-1.486-3.173 0-1.276.462-2.304 1.386-3.086.924-.78 2.396-1.171 4.415-1.171h4.133a.639.639 0 0 0 .639-.639v-.276c0-1.295-.362-2.28-1.086-2.957-.724-.676-1.781-1.014-3.172-1.014-.953 0-1.867.157-2.743.471a7.206 7.206 0 0 0-1.713.873.64.64 0 0 1-.917-.19l-.249-.413a.636.636 0 0 1 .17-.846 8.361 8.361 0 0 1 2.28-1.138 10.661 10.661 0 0 1 3.372-.529c1.962 0 3.467.491 4.515 1.471Zm16.66 11.288a5.15 5.15 0 0 0 2.014-2.072c.486-.895.729-1.915.729-3.058 0-1.142-.243-2.161-.729-3.057a5.15 5.15 0 0 0-2.014-2.072c-.858-.486-1.81-.728-2.858-.728-1.067 0-2.024.242-2.872.728a5.179 5.179 0 0 0-2 2.072c-.486.896-.729 1.915-.729 3.057 0 1.143.243 2.163.73 3.058a5.179 5.179 0 0 0 2 2.072c.847.485 1.804.728 2.871.728 1.047 0 2-.243 2.858-.728Zm1.114-11.802a6.854 6.854 0 0 1 2.686 2.701c.648 1.162.971 2.485.971 3.971 0 1.486-.323 2.811-.971 3.972a6.942 6.942 0 0 1-2.686 2.715c-1.143.648-2.42.972-3.83.972-1.256 0-2.385-.267-3.385-.801a6.101 6.101 0 0 1-1.092-.741c-.521-.445-1.323-.085-1.323.6a.799.799 0 0 1-.798.799h-.347a.799.799 0 0 1-.798-.799v-19.606c0-.441.358-.798.798-.798h.433c.44 0 .798.357.798.798v6.134a.797.797 0 0 0 1.307.613 6.11 6.11 0 0 1 1.108-.73c.98-.504 2.08-.757 3.3-.757 1.41 0 2.686.319 3.829.957Zm17.197 11.802a5.151 5.151 0 0 0 2.014-2.072c.486-.895.729-1.915.729-3.058 0-1.142-.243-2.161-.729-3.057a5.151 5.151 0 0 0-2.014-2.072c-.857-.486-1.81-.728-2.858-.728-1.067 0-2.024.242-2.871.728a5.177 5.177 0 0 0-2 2.072c-.486.896-.73 1.915-.73 3.057 0 1.143.244 2.163.73 3.058a5.177 5.177 0 0 0 2 2.072c.847.485 1.804.728 2.871.728 1.048 0 2-.243 2.858-.728Zm1.114-11.802a6.857 6.857 0 0 1 2.687 2.701c.647 1.162.97 2.485.97 3.971 0 1.486-.323 2.811-.97 3.972a6.945 6.945 0 0 1-2.687 2.715c-1.143.648-2.42.972-3.829.972-1.257 0-2.386-.267-3.386-.801a6.117 6.117 0 0 1-1.092-.741c-.521-.445-1.322-.085-1.322.6a.799.799 0 0 1-.798.799h-.348a.799.799 0 0 1-.797-.799v-19.606c0-.441.357-.798.797-.798h.433c.441 0 .798.357.798.798v6.134a.797.797 0 0 0 1.307.613c.34-.282.71-.525 1.108-.73.98-.504 2.081-.757 3.3-.757 1.41 0 2.686.319 3.83.957Zm7.848-.843h.348c.56 0 1.014.454 1.014 1.015v13.001c0 .56-.454 1.015-1.014 1.015h-.348a.667.667 0 0 1-.666-.667v-13.697c0-.369.298-.667.666-.667Zm-.695-3.715a1.4 1.4 0 0 1-.429-1.028c0-.381.143-.715.429-1a1.435 1.435 0 0 1 1.057-.429c.42 0 .772.139 1.057.415.286.276.429.604.429.985 0 .419-.143.772-.429 1.057a1.436 1.436 0 0 1-1.057.429c-.42 0-.771-.143-1.057-.429Zm15.941 17.201a.824.824 0 0 1-.329 1.083 4.363 4.363 0 0 1-.776.333 5.702 5.702 0 0 1-1.758.272c-1.41 0-2.495-.381-3.257-1.143-.763-.762-1.143-1.839-1.143-3.23v-8.257a.83.83 0 0 0-.83-.829h-1.027a.83.83 0 0 1-.83-.829v-.057a.83.83 0 0 1 .83-.829h1.027a.83.83 0 0 0 .83-.829v-1.628c0-.458.37-.829.829-.829h.37a.83.83 0 0 1 .83.829v1.628c0 .458.37.829.828.829h2.914a.83.83 0 0 1 .83.829v.057a.83.83 0 0 1-.83.829H77.87a.829.829 0 0 0-.829.829v8.143c0 .896.224 1.577.672 2.043.447.467 1.09.7 1.929.7a3.742 3.742 0 0 0 1.546-.332.825.825 0 0 1 1.088.388Z"/>
  <path fill="#00B1FF" d="M86.81 40.002a1.4 1.4 0 0 0 1.082-1.63c-.157-.743-.887-1.239-1.63-1.082a1.367 1.367 0 0 0-1.082 1.63c.143.743.874 1.225 1.63 1.082Z"/>
  <path fill="#00E6E6" d="M77.355 55.648a2.077 2.077 0 0 0 1.637-2.45 2.097 2.097 0 0 0-2.462-1.636 2.106 2.106 0 0 0-1.637 2.462 2.087 2.087 0 0 0 2.462 1.624Zm9.509-29.168a1.89 1.89 0 0 0 1.483-2.217 1.88 1.88 0 0 0-2.217-1.47 1.868 1.868 0 0 0-1.47 2.204 1.887 1.887 0 0 0 2.204 1.483Z"/>
  <path fill="#00B1FF" d="M58.403 11.947a1.355 1.355 0 0 0 1.07-1.598 1.358 1.358 0 0 0-1.611-1.07 1.364 1.364 0 0 0-1.07 1.598 1.357 1.357 0 0 0 1.61 1.07Zm38.794 2.725a1.355 1.355 0 0 0 1.07-1.6 1.358 1.358 0 0 0-1.612-1.07 1.364 1.364 0 0 0-1.07 1.6 1.358 1.358 0 0 0 1.612 1.07Z"/>
  <path fill="#00E6E6" d="M69.003 31.393a1.354 1.354 0 0 0 1.07-1.598 1.357 1.357 0 0 0-1.611-1.07 1.364 1.364 0 0 0-1.07 1.598 1.358 1.358 0 0 0 1.611 1.07Zm8.415-16.039c1.468-.284 2.447-1.727 2.138-3.195-.31-1.494-1.726-2.448-3.22-2.139-1.47.284-2.423 1.727-2.139 3.195.309 1.495 1.726 2.448 3.22 2.139Z"/>
  <path fill="#00B1FF" d="M23.248 76.739a36.09 36.09 0 0 1-9.14-7.147l9.61 6.214c-.19.29-.355.609-.47.933ZM4.692 48.26a39.41 39.41 0 0 1-.128-3.219c.4-.097.78-.249 1.117-.47l4.599 3.842c-.21.366-.311.796-.27 1.24.059.851.63 1.526 1.38 1.792l-1.143 13.169A36.034 36.034 0 0 1 4.692 48.26Zm6.603-24.032a5.153 5.153 0 0 0 1.633.925l-7.467 13.23c-.074-.034-.16-.083-.233-.117a35.864 35.864 0 0 1 6.067-14.038ZM32.95 10.01c.036.147.072.281.135.418l-14.102 7.665a4.918 4.918 0 0 0-.795-1.115A35.851 35.851 0 0 1 32.95 10.01Zm-.037-.354.005.065c-.011-.014-.008-.04-.005-.065ZM69.326 71.19a3.088 3.088 0 0 0-3.645-2.423 3.112 3.112 0 0 0-2.475 3.215l-9.188-1.9-.291.127a3.918 3.918 0 0 1 .92.93l8.773 1.795.004.007a35.793 35.793 0 0 1-19.8 8.09 36.306 36.306 0 0 1-11.022-.743 4.89 4.89 0 0 0 .3-2.185 5.15 5.15 0 0 0-.486-1.78l12.712-3.333c-.578.016-1.174.078-1.72.124-1.109.093-2.206.17-3.318.14l-8.234 2.175a5.714 5.714 0 0 0-1.127-1.049l1.012-2.785c-.32-.124-.639-.256-.953-.393l-.976 2.685a5.127 5.127 0 0 0-2.321-.354 5.02 5.02 0 0 0-3.11 1.451l-10.407-6.732a2.82 2.82 0 0 0 .078-.925c-.008-.04-.017-.08-.012-.118l7.753-2.724c-.256-.3-.507-.606-.752-.919l-7.375 2.588a2.641 2.641 0 0 0-.607-.704l4.255-8.154a30.892 30.892 0 0 1-.552-1.348l-4.696 8.987c-.25-.08-.52-.11-.806-.104l1.157-13.297A2.073 2.073 0 0 0 14 48.665l.909-.387c-.04-.356-.073-.713-.1-1.07l-1.453.62a2.05 2.05 0 0 0-1.457-.426 2.055 2.055 0 0 0-.903.3l-4.54-3.783c.328-.378.574-.83.731-1.306l7.57.695c.017-.352.04-.703.07-1.054l-7.482-.687c-.002-.104-.001-.22-.015-.326a3.6 3.6 0 0 0-1.032-2.231l7.68-13.622c.32.036.658.035.998.01a4.93 4.93 0 0 0 1.332-.304l1.997 5.613c.232-.417.475-.828.727-1.232l-1.746-4.88a4.93 4.93 0 0 0 1.232-1.145l3.794 1.777c.255-.272.517-.54.784-.803l-4.02-1.884a5.094 5.094 0 0 0 .472-1.88l9.15-.447c.514-.28 1.042-.545 1.585-.795.336-.155.675-.305 1.016-.45l-11.818.57c-.034-.16-.068-.32-.115-.48l14.295-7.761a2.457 2.457 0 0 0 1.946.687 2.485 2.485 0 1 0-.425-4.952 2.505 2.505 0 0 0-2.13 1.614 37.135 37.135 0 0 0-15.899 7.5 4.946 4.946 0 0 0-3.032-.719 4.987 4.987 0 0 0-4.557 5.412 4.92 4.92 0 0 0 .844 2.393 37.336 37.336 0 0 0-6.457 14.733 3.072 3.072 0 0 0-.494.01A3.57 3.57 0 0 0 .19 41.846 3.595 3.595 0 0 0 3.26 45.1c-.006 1.077.04 2.171.135 3.272a37.25 37.25 0 0 0 5.969 17.283c-.53.55-.837 1.32-.762 2.145a2.734 2.734 0 0 0 2.96 2.49c.394-.034.772-.16 1.104-.343a37.447 37.447 0 0 0 10.265 8.105c-.02.296-.028.593 0 .908a5.007 5.007 0 0 0 5.413 4.558 5.009 5.009 0 0 0 3.618-2.043 36.844 36.844 0 0 0 11.774.855 37.015 37.015 0 0 0 20.424-8.303 3.07 3.07 0 0 0 2.742.79c1.66-.325 2.748-1.966 2.424-3.626Z"/>
  <path fill="#00E6E6" fill-rule="evenodd" d="M41.8 28.684c-3.526-.237-5.846-3.898-5.815-4.71.439.544 1.586 3.315 4.594 3.765.385.057-.018-.701.483-.668.026.002 1.253 1.65.738 1.613Zm6.514 11.463c-.587.395-1.69.248-2.247.921-1.185 1.436-3.388 1.75-5.13 1.481-3.32-.511-4.49-2.209-6.715-4.3-4.478-4.21-1.084-4.949-5.794-8.936-.303-.257-.795-.74-1-1.71 1.136 2.16 2.833 1.619 4.271 5.341.396 1.024.884 2.904 1.46 3.246.286.17-.015-1.299.031-1.973.251-4.47 3.321-.156 5.856.37 2.417.468 4.895-.118 6.96-1.432-.665-.733-1.217-1.273-.82-2.249-.006.71.927 1.471 1.366 1.953.964-.696.779-1.323.496-2.273-.935-3.14-.992-5.77-3.52-7.925-.151-.128-.009-.363.169-.305 5.98 1.953 10.138 3.331 16.738 3.52 4.013.114 8.04-.32 11.909-1.345.908-.24.87-.29.3-1.179-5.284-8.234-14.935-6.472-23.065-4.99-1.678.307-6.85 1.205-7.641 1.015-.633-.152-1.972-.27-1.578-.637l9.459-8.984c2.719-2.656 3.036-5.8 1.472-9.16-7.167 1.107-11.44 7.305-12.965 13.98-.452 1.978-.87 2.856-2.828 3.594-3.5 1.367-6.374 2.326-9.43 4.705-4.701 3.662-7.731 8.37-9.289 13.426-4.946 16.052 4.93 35.528 23.186 36.16 4.846.167 8.561-1.778 8.223 2.901-.029.4-.052.71.027.752 1.679.898 7.032.049 6.266-3.395-.661-2.973-4.242-1.949-.217-3.594 3.163-1.292 1.818-7.659 2.556-7.597.184.015 2.788 3.867 3.107 4.322 2.207 3.146 7.333 1.348 6.798-2.743l1.937-14.327c.848-6.258 6.765-5.983 7.05-7.898.088-.615-.858-1.287.031-1.2 3.956.388 2.086-2.688 2.092-3.023.056-3.03-3.24-2.413-5.179-1.858-4.393 1.26-7.056 4.433-7.656 8.972-.375 2.84-1.058 6.568-1.543 9.605-.39 2.446-2.4 4.64-2.733 4.303l-6.197-6.283c-3.016-3.056-6.627-4.407-10.82-3.677-6.79.884-10.535 5.497-10.777 12.57-1.132-2.051.408-7.738 2.988-9.886.594-.494 1.56-1.11 2.235-1.498l-1.366-1.34c-3.384-.09-5.103-2.265-7.32-2.27-3.963-.011-7.015 1.567-8.347.403.923.46 2.95.018 4.839-.447 6.887-1.696 6.406 2.33 13.027 1.42 3.374-.465 5.844-1.369 9.74-1.565 1.91-.095 2.773-.727 3.014-2.931.13-1.2-.77-1.929-1.613-2.68-.335-.3-1.54.43-1.813.65Z" clip-rule="evenodd"/>
  <path fill="#00B1FF" fill-rule="evenodd" d="M51.54 36.318c-2.772-2.905-8.142-1.562-9.142 2.187-1.05 3.931 2.67-1.196 3.95 1.744.565-.242 1.27-.24 1.698-.529.162-.13.65-.44 1.092-.608l.036-.033c-.9-2.291 3.666-1.398 2.366-2.76Z" clip-rule="evenodd"/>
</svg>
